<svg version="1.1" id="Layer_1" xmlns="http://www.w3.org/2000/svg" xmlns:xlink="http://www.w3.org/1999/xlink" x="0px" y="0px"
	 width="100%" height="100%" viewBox="0 0 992 992" enable-background="new 0 0 992 992" xml:space="preserve">
<path fill="#000000" opacity="1.000000" stroke="none" 
	d="
M749.117188,862.178955 
	C696.646362,897.988281 639.580933,921.580933 577.294861,932.494934 
	C549.502808,937.364746 521.532471,939.863403 493.334625,939.231018 
	C422.042389,937.632141 354.850677,920.278381 292.073303,886.267883 
	C282.461334,881.060425 278.832977,874.181091 280.679718,865.290283 
	C282.736450,855.388489 293.307770,849.243713 302.938538,852.461975 
	C305.131531,853.194824 307.236389,854.264893 309.274689,855.376343 
	C348.514587,876.772461 390.274170,890.940735 434.269653,898.416504 
	C462.411407,903.198486 490.868103,905.005493 519.347351,903.495178 
	C601.496216,899.138306 675.935669,872.805542 742.094971,823.672913 
	C759.111328,811.035950 774.842041,796.893433 789.760132,781.834900 
	C792.237610,779.334106 793.055725,776.731323 792.455383,773.293701 
	C780.470825,704.672363 748.463135,647.165100 696.657043,600.665527 
	C686.229248,591.305786 675.065796,582.878967 663.427246,575.052124 
	C660.348572,572.981689 658.504822,573.229431 655.771606,575.613281 
	C624.756226,602.664429 589.157166,620.744507 548.757874,628.780640 
	C492.489166,639.973511 438.868774,632.313354 388.213257,605.033997 
	C373.329926,597.018860 359.596069,587.337708 346.856171,576.277161 
	C343.711975,573.547485 341.344452,573.132019 337.767120,575.556946 
	C274.230530,618.626343 232.991776,677.322510 213.943024,751.655884 
	C211.008362,763.107727 209.255707,774.769531 207.565598,786.443176 
	C206.501022,793.796326 202.339905,798.755798 195.485382,800.950989 
	C188.167526,803.294617 181.716705,801.140503 176.518875,795.423096 
	C152.413712,768.908386 131.916733,739.833862 114.915276,708.304932 
	C93.180336,667.997864 78.057907,625.302429 69.956680,580.252014 
	C63.875286,546.433655 61.497162,512.352966 63.437405,477.912048 
	C65.534904,440.679779 71.875809,404.322845 83.025009,368.791534 
	C95.777565,328.150513 114.222755,290.228943 138.171188,255.009583 
	C169.446167,209.015594 208.039871,170.193726 253.945557,138.869553 
	C302.660431,105.628510 355.991364,83.071503 413.938904,71.488579 
	C446.540619,64.971939 479.427429,61.845203 512.608337,62.848694 
	C575.305054,64.744835 635.109131,78.989639 691.662964,106.341682 
	C703.254578,111.947914 706.967285,123.731087 700.376343,133.148804 
	C695.081604,140.714432 686.061584,142.856094 676.844910,138.431564 
	C660.910156,130.782013 644.625244,124.006668 627.819153,118.536041 
	C602.465698,110.283180 576.595276,104.455391 550.091919,101.144089 
	C527.364380,98.304535 504.574432,97.403214 481.796448,98.534927 
	C424.727936,101.370377 370.487732,115.374077 319.397858,141.260284 
	C279.652283,161.398575 244.029037,187.210678 213.030884,219.150726 
	C156.934845,276.951233 120.904099,345.399841 105.320015,424.538422 
	C99.014618,456.558319 96.904999,488.919342 98.525261,521.397156 
	C101.216286,575.338623 114.263901,626.808044 137.817383,675.521240 
	C148.434784,697.480164 160.870346,718.342712 175.267365,738.031006 
	C176.314758,739.463379 177.071732,741.228638 178.991760,741.976440 
	C180.959778,740.514343 180.928467,738.150269 181.461166,736.177917 
	C197.395660,677.180664 227.549118,626.569519 271.279785,584.014832 
	C289.985199,565.812439 310.674683,550.135681 333.164429,536.871460 
	C344.135132,530.401123 350.711670,531.257507 359.929535,540.359985 
	C391.171753,571.211365 428.546600,590.470154 471.916992,596.310791 
	C537.371094,605.125488 594.299927,586.116150 642.036621,540.260498 
	C651.222534,531.436584 657.958923,530.415283 668.826477,536.965332 
	C674.816956,540.575806 680.785583,544.246643 686.555237,548.195496 
	C738.122131,583.488464 776.915222,629.569275 802.777832,686.456421 
	C810.088867,702.537720 816.032898,719.141113 820.476074,736.266907 
	C820.956726,738.119507 820.929749,740.284668 822.634827,741.753235 
	C824.539551,741.475891 825.322998,739.884094 826.264038,738.585083 
	C862.899780,688.013550 886.932556,632.119324 897.839722,570.536743 
	C903.063232,541.044312 904.870850,511.344269 903.471619,481.555664 
	C901.252625,434.313568 891.034729,388.737457 872.591187,345.060089 
	C859.031555,312.948669 841.604065,283.133301 820.519531,255.417068 
	C813.438293,246.108551 814.338013,236.086731 822.844360,229.388092 
	C830.774048,223.143631 841.476135,224.882965 848.317139,233.827347 
	C875.939453,269.942932 897.787598,309.235687 913.198547,352.068146 
	C924.504089,383.490082 932.235779,415.770538 936.111511,448.916473 
	C939.325562,476.403442 940.348511,504.006683 938.219238,531.642151 
	C932.850952,601.317749 912.845581,666.385681 876.700500,726.356262 
	C843.965088,780.669678 801.526123,825.858887 749.117188,862.178955 
z"/>
<path fill="#000000" opacity="1.000000" stroke="none" 
	d="
M502.975586,204.677887 
	C578.509949,206.025772 643.442993,255.043396 664.106506,325.732239 
	C680.713623,382.544159 670.978271,435.345734 634.172241,481.977356 
	C606.274902,517.322021 569.405823,538.837524 524.523804,544.250305 
	C453.595276,552.804199 397.668549,526.489502 357.561981,467.757874 
	C339.550537,441.382111 331.411835,411.465881 330.438416,379.279297 
	C328.112793,302.376862 378.948364,235.719574 447.036774,213.379562 
	C465.042938,207.471680 483.531830,204.593643 502.975586,204.677887 
M534.335693,506.697632 
	C617.140137,484.046936 658.774902,397.156433 624.232666,319.085388 
	C595.641785,254.465378 517.924927,223.082794 451.546570,249.353577 
	C393.633545,272.274017 358.571564,330.804230 366.524658,392.442108 
	C371.009216,427.198364 386.669525,456.429321 413.758789,478.884003 
	C448.914001,508.024780 489.061310,516.983032 534.335693,506.697632 
z"/>
</svg>