<svg version="1.1" id="Layer_1" xmlns="http://www.w3.org/2000/svg" xmlns:xlink="http://www.w3.org/1999/xlink" x="0px" y="0px"
	 width="100%" height="100%" viewBox="0 0 640 640" enable-background="new 0 0 640 640" xml:space="preserve">
<path fill="#000000" opacity="1.000000" stroke="none" 
	d="
M262.942535,275.025208 
	C265.969086,275.221497 269.142181,276.796204 272.184723,273.929871 
	C269.475403,270.652374 265.730469,269.923553 262.034424,269.448700 
	C257.414581,268.855164 252.745422,268.631561 248.093506,268.305817 
	C243.077179,267.954559 239.870667,265.099396 238.638458,259.567078 
	C243.523727,257.737579 247.938293,260.329041 253.985840,261.535889 
	C248.740250,254.550735 244.973709,248.039185 237.797699,244.597046 
	C236.907364,244.169983 235.815033,244.120377 234.987259,243.615555 
	C233.197006,242.523727 230.453842,241.400436 231.789154,238.859680 
	C232.983765,236.586609 234.952240,238.817032 236.566757,239.304626 
	C236.992050,239.433090 237.501541,239.282730 238.263153,239.246613 
	C238.746201,235.731140 236.292191,233.983414 234.051407,232.580673 
	C229.824356,229.934494 228.910675,226.605942 229.316391,221.661331 
	C231.469498,195.419479 236.867279,169.650116 240.207108,143.606384 
	C243.881409,114.954247 233.317566,88.433342 202.542404,75.900024 
	C201.027267,75.282982 199.540466,74.596375 197.754913,73.817612 
	C200.788818,68.885651 206.713608,67.117409 209.521912,61.664890 
	C202.093536,58.410931 194.926575,58.362335 187.894257,61.617500 
	C182.971497,63.896183 179.500671,68.922646 173.277359,69.152107 
	C183.759903,68.591812 192.517746,59.059223 205.192276,64.005539 
	C195.411636,72.007530 187.887817,80.996841 175.023010,80.948074 
	C179.728790,82.107544 186.498016,81.095718 190.081985,78.550529 
	C192.041550,77.158913 193.753372,76.829750 196.086624,77.348175 
	C216.666779,81.920822 234.302032,101.731537 236.338257,122.725899 
	C238.255188,142.490356 235.988159,161.829926 231.402435,181.107376 
	C229.378342,189.616196 229.199524,198.570526 228.279022,207.332687 
	C227.774872,212.131683 227.496582,216.954025 227.061081,221.760818 
	C226.927658,223.233414 226.791183,224.765305 225.223984,225.897141 
	C221.681000,224.988190 219.640335,223.973434 222.462509,219.550827 
	C225.300827,215.102905 227.502365,210.024338 223.412811,204.812653 
	C222.497711,203.646484 222.755569,202.252914 223.484772,201.038696 
	C226.626419,195.807388 226.359253,190.302124 224.772766,184.723099 
	C224.290527,183.027222 224.977341,181.775452 225.928116,180.602921 
	C229.709595,175.939560 230.482788,170.369049 230.820969,164.664215 
	C230.931915,162.792618 230.779602,160.844696 229.370178,159.517700 
	C226.310181,156.636612 226.696396,154.631042 230.015640,152.015121 
	C234.818298,148.230118 235.260696,141.209244 231.178040,135.934204 
	C229.273026,133.472839 229.395630,131.802826 231.027817,129.336594 
	C234.660904,123.846916 232.820496,115.611565 227.197052,112.433090 
	C224.455566,110.883545 223.269287,108.963829 223.703033,106.008499 
	C224.612885,99.809372 220.772705,96.121986 216.740158,92.491776 
	C214.736938,90.688431 212.407730,90.941994 210.120926,91.496330 
	C208.014221,92.007011 205.962372,92.678482 203.969299,92.341873 
	C202.899658,91.817955 202.794678,90.983482 202.583527,90.175064 
	C200.741989,83.124046 193.830505,80.222427 186.980560,83.507935 
	C183.785477,85.040421 180.206329,85.003548 176.676498,85.953064 
	C180.021896,86.736313 183.535385,86.842308 186.620895,88.510590 
	C189.596985,90.119713 193.009369,91.068886 195.455521,94.580048 
	C183.422058,96.588684 170.187454,95.179459 163.993927,108.778183 
	C168.767731,107.000305 173.375107,105.634911 178.435425,108.420837 
	C176.809647,111.819908 174.376007,113.720398 170.854599,114.336952 
	C166.738663,115.057610 162.733200,116.167717 158.984619,118.066978 
	C156.359268,119.397148 154.331085,121.240303 153.625275,124.820457 
	C159.012558,123.673210 164.328339,120.886993 169.932053,124.848534 
	C167.669434,127.626312 165.109482,128.802948 162.088394,129.318329 
	C158.635681,129.907349 155.245209,130.766541 152.110641,132.404175 
	C145.605453,135.802795 144.436722,139.940567 148.146881,146.279480 
	C148.714661,147.249573 149.757187,148.036484 149.455597,149.516144 
	C147.233185,151.365021 144.743332,149.605682 142.397842,149.851395 
	C140.903549,150.758728 142.552994,152.469650 141.449249,153.461761 
	C135.319336,152.406601 134.712555,149.065369 139.167969,140.704636 
	C138.578918,139.387848 137.307556,141.292892 136.344666,139.587708 
	C140.427185,133.310135 143.160187,125.892601 146.909698,118.944412 
	C149.479584,120.260300 146.922287,122.053093 148.050415,123.609612 
	C150.505234,118.476395 153.523407,113.859642 155.082382,108.559784 
	C157.722641,99.584053 154.803070,95.545357 145.473145,95.215683 
	C142.830994,95.122314 140.182755,95.201408 136.745682,95.201408 
	C139.234833,98.493881 136.816284,99.792908 134.853973,101.831497 
	C128.407928,107.236923 121.373047,110.728409 115.968361,116.608925 
	C112.831429,120.022057 113.601555,122.475113 115.282104,125.534416 
	C115.984459,126.813011 117.073898,127.878960 118.002350,129.025452 
	C118.017365,129.009293 118.052711,128.982513 118.052711,128.982513 
	C114.723396,130.090912 111.915466,128.846069 109.378891,126.709961 
	C107.627014,128.679886 108.503036,130.328506 109.249039,131.969269 
	C109.717636,132.999893 110.630852,134.043091 109.428421,135.106094 
	C108.172379,136.216507 106.919846,135.572510 105.771545,134.840637 
	C104.035225,133.733994 102.681061,132.175293 102.000191,130.288834 
	C100.986183,127.479355 99.372894,125.792259 96.310738,126.323341 
	C94.573708,120.150093 95.732491,116.105850 101.255081,112.967972 
	C106.475304,110.001884 110.606247,106.290092 113.792007,101.246544 
	C115.098763,99.177742 116.995110,97.382431 118.914696,95.820992 
	C122.496147,92.907738 126.540802,91.064056 126.319939,84.866371 
	C126.181198,80.973114 130.234924,77.646622 134.179062,75.823578 
	C139.615784,73.310638 145.026611,70.592255 150.712662,68.799782 
	C161.909714,65.270020 170.914566,58.823708 178.353622,49.928894 
	C181.842377,45.757389 185.611664,42.637966 191.684692,42.352661 
	C195.937256,42.152874 200.094208,39.918282 204.608490,39.153828 
	C198.147797,48.626602 188.392731,54.058437 179.495316,60.689075 
	C183.798309,57.659725 190.716736,60.715530 193.407822,54.260765 
	C194.086456,52.633003 195.818848,52.703060 197.356598,52.862213 
	C221.136414,55.323399 238.733383,66.821762 248.671310,88.821976 
	C257.815155,109.064255 259.636169,130.561935 257.602997,152.373184 
	C255.211746,178.025223 250.182205,203.451706 251.348358,229.396072 
	C251.612244,235.266525 252.326401,241.068497 254.955124,246.361465 
	C258.865417,254.234955 264.838379,259.158691 274.196716,258.974731 
	C279.699310,258.866547 285.183289,259.477295 290.478943,261.017395 
	C292.719452,261.668976 295.406250,262.017242 296.479767,264.703003 
	C295.132751,267.246399 291.992340,266.039398 290.159637,268.453064 
	C303.918671,272.333374 316.763550,265.518433 331.094635,265.599640 
	C327.407593,270.496857 321.441833,269.822083 318.522675,274.055908 
	C320.525818,276.624908 323.108826,276.533142 325.752045,276.242920 
	C334.527771,275.279449 343.202576,273.802338 351.764526,271.588684 
	C353.411530,271.162811 355.839142,268.976410 357.044434,272.709412 
	C357.008087,273.000824 357.045624,272.970825 357.045624,272.970825 
	C354.188751,273.994659 351.894257,275.730255 349.823944,278.087891 
	C353.218933,280.872009 356.181000,279.289429 359.107300,278.315277 
	C366.088165,275.991302 373.049866,273.664337 380.582642,275.519958 
	C382.193176,275.916718 383.891998,276.013062 385.182251,277.782288 
	C381.955292,281.062500 376.882629,280.824158 372.870239,284.210388 
	C388.914703,287.581055 404.970154,283.883148 420.589569,287.335388 
	C419.594330,290.615326 416.598602,290.033569 415.276855,291.903107 
	C414.869904,293.529938 417.421417,293.941925 416.941376,296.075378 
	C411.588989,298.670197 405.743042,299.870178 399.525787,300.514313 
	C393.141937,301.175690 388.392822,295.549835 381.310608,296.446381 
	C384.002563,300.541779 387.627930,301.067719 391.069885,301.671692 
	C401.667847,303.531372 412.003235,301.864868 422.060974,298.583557 
	C434.039093,294.675781 445.179169,289.148285 454.339417,280.202087 
	C458.729889,275.914154 461.255066,270.987213 460.732971,264.616486 
	C460.463501,261.328125 460.429230,257.969940 461.441864,254.700043 
	C463.051300,249.502914 464.673065,248.718658 469.302124,251.538620 
	C496.955780,268.385010 519.683289,290.311127 536.581909,317.984436 
	C555.155151,348.400116 564.819946,381.638977 567.455750,417.117157 
	C569.244324,441.191559 568.546997,465.086060 562.332031,488.453552 
	C555.174377,515.365051 540.678955,538.512512 522.862610,559.545410 
	C504.035095,581.772034 483.265472,601.901306 457.218262,615.781860 
	C435.425079,627.395447 412.184143,634.765320 388.013367,639.420288 
	C386.218475,639.765991 384.447479,640.235962 382.332703,640.824097 
	C348.645782,641.000000 315.291534,641.000000 281.468658,641.000000 
	C284.568390,638.838623 288.566925,638.817322 292.517639,638.853516 
	C314.851196,639.057922 337.123413,638.205933 359.206299,634.644287 
	C374.690369,632.147034 389.953735,628.727295 403.684265,620.663330 
	C415.484283,613.733215 423.790436,604.657410 421.190613,589.236755 
	C428.602570,587.039246 436.151367,587.193848 443.432800,585.775574 
	C454.597900,583.601074 465.518036,580.827881 475.518494,575.214905 
	C492.461700,565.705200 496.669464,551.164490 486.789795,534.404419 
	C484.087463,529.820129 484.460938,527.710876 488.762543,524.522766 
	C500.820709,515.585754 512.273132,505.892883 520.241882,492.814270 
	C529.188416,478.130951 526.451355,466.540100 511.702484,457.996094 
	C508.939301,456.395416 508.670288,454.726959 509.250122,451.902527 
	C511.726227,439.841705 513.695007,427.700775 513.642029,415.327789 
	C513.624756,411.307129 512.970947,407.362030 511.920135,403.509735 
	C509.143494,393.329987 502.719635,389.874847 492.561646,392.904755 
	C489.169830,393.916504 486.166443,395.691620 483.122620,397.414703 
	C481.436127,398.369446 479.866638,399.694641 477.031494,399.675415 
	C476.240662,392.834320 477.031799,386.010986 475.818909,379.347260 
	C474.923615,374.428467 474.219055,369.497009 472.148438,364.895142 
	C466.204865,351.685516 453.347931,352.302399 442.954834,360.170868 
	C441.963654,360.921265 441.456390,362.013550 442.400208,363.206421 
	C443.394562,364.463196 444.441162,363.962708 445.435272,363.189697 
	C448.469147,360.830811 451.608429,358.728424 455.334137,357.502380 
	C459.519531,356.125092 462.681610,357.171204 465.549255,360.461060 
	C470.458893,366.093506 471.312683,373.042694 472.275208,379.957581 
	C473.402893,388.059021 473.381256,396.224335 473.316345,404.387573 
	C473.303711,405.973175 472.809265,407.773865 474.456207,409.018921 
	C477.488586,409.182037 478.392548,405.489868 482.310425,405.173462 
	C482.207794,427.465485 481.420197,449.467010 474.712585,470.881927 
	C468.034546,492.202332 460.694366,513.238220 448.073303,532.722046 
	C446.578644,534.776550 445.381042,536.239319 444.183411,537.702087 
	C428.659271,554.873230 410.791718,569.342102 391.223694,581.492432 
	C368.599915,595.540222 343.199554,602.557129 317.430054,608.303650 
	C296.161957,613.046387 274.610352,614.608704 252.948654,613.191650 
	C226.381912,611.453674 200.318817,606.831604 176.591370,593.939941 
	C160.899399,585.414062 146.800964,574.422424 133.158630,562.929688 
	C118.764015,550.803223 105.321831,537.632263 91.403229,524.298462 
	C91.042732,524.003052 90.837944,523.753662 90.837944,523.753662 
	C83.458122,514.736084 76.673019,505.291870 70.252457,495.206726 
	C70.001465,495.007355 70.016029,495.031921 70.016029,495.031921 
	C62.007240,481.013092 53.805923,467.091888 47.778912,452.051147 
	C47.004585,450.118713 45.661083,448.272797 46.337868,445.451630 
	C51.531116,446.052979 56.167908,447.583649 59.978294,450.881409 
	C59.569149,454.603546 55.430542,453.190735 54.379066,456.124115 
	C57.981541,460.125977 64.772308,459.478821 67.700844,464.381561 
	C67.493004,466.687073 65.078415,466.498138 64.070251,468.349670 
	C66.289780,470.840759 69.827118,471.035522 72.575935,472.619476 
	C77.109772,475.231995 77.434196,476.385223 74.200798,480.518494 
	C75.343735,482.104736 77.225632,482.497559 78.831589,483.307098 
	C84.825432,486.328369 85.084465,487.190765 81.295906,492.111023 
	C91.800659,493.859650 96.036301,497.489227 95.544151,504.320587 
	C102.138000,507.472351 103.692322,508.784790 105.854218,513.040100 
	C105.193237,515.206055 102.911301,514.850037 100.976288,516.075562 
	C104.159195,516.893921 107.012703,517.429993 109.721466,518.379150 
	C112.459908,519.338745 115.166588,520.971619 115.159721,524.197510 
	C115.153168,527.281250 111.411751,525.402039 109.895515,527.377441 
	C110.715820,529.261047 112.672989,529.179993 114.292427,529.652649 
	C116.528069,530.305115 118.766449,530.948303 121.000999,531.604431 
	C125.055069,532.794861 127.498337,534.697571 123.796631,539.052856 
	C137.315720,539.829285 139.318497,541.480896 135.767822,549.145691 
	C143.288452,550.038147 151.774567,549.337341 153.731674,559.215820 
	C161.821243,558.964417 163.835571,556.255249 167.993561,567.037170 
	C180.171127,566.627441 180.171127,566.627441 180.147400,573.036438 
	C184.869781,573.894165 191.168289,570.774109 193.503265,578.007202 
	C202.603989,577.136047 203.647171,577.694824 203.986053,583.624084 
	C214.653030,582.841003 214.653030,582.841003 218.485046,585.867249 
	C218.992050,587.890320 216.375931,588.247498 216.174652,590.532532 
	C221.686874,591.063171 228.183197,582.927979 232.501785,591.898743 
	C243.210556,588.131836 243.210556,588.131836 248.331848,594.303589 
	C252.859726,591.555786 257.523285,586.947876 262.119843,593.998657 
	C273.019958,587.897766 274.173645,587.905701 279.082825,594.228333 
	C283.592773,591.222900 287.693939,584.273315 293.857849,592.027649 
	C296.805023,590.169556 299.503448,588.216125 302.423828,586.686584 
	C306.721771,584.435547 308.018250,585.156067 309.304321,589.966064 
	C314.384247,588.933594 316.784332,578.639587 324.331299,585.494202 
	C329.540955,583.974731 332.861694,575.007751 340.320679,581.095703 
	C345.174286,579.709717 346.749695,570.403442 354.404938,575.259644 
	C360.092377,568.053955 361.941986,567.174927 365.524994,570.266541 
	C367.353271,567.513794 368.141815,564.029968 370.824738,561.950867 
	C374.392700,559.186035 376.555756,561.128540 378.067719,565.538635 
	C379.904785,560.915833 380.096497,556.589172 382.696472,553.259460 
	C385.209961,550.040588 386.537140,550.197388 388.489685,553.922119 
	C389.536316,548.039551 391.167816,542.532349 397.205719,539.973450 
	C399.579376,540.270020 398.537415,542.519958 399.548859,543.474609 
	C400.240356,543.581482 400.415100,543.105408 400.458649,542.634583 
	C400.581238,541.308533 400.596283,539.971924 400.735443,538.648010 
	C401.548615,530.912109 403.440857,529.281677 410.364532,530.304749 
	C407.963715,520.613220 409.466064,515.798096 415.626495,514.473633 
	C415.124298,511.602325 414.240082,508.711304 414.217529,505.813568 
	C414.194733,502.877014 414.654419,499.774231 417.376251,497.948975 
	C419.194397,497.287201 419.920319,499.791199 422.338440,498.787781 
	C422.472656,493.239899 412.554443,487.031311 422.137695,480.900299 
	C421.704987,480.088348 420.893005,478.879578 420.386749,477.554047 
	C419.032349,474.007751 419.313995,470.252930 419.931061,466.692749 
	C420.835266,461.475739 425.839722,464.740997 428.797882,462.865112 
	C426.368805,461.337463 423.841217,460.086975 421.719604,458.342712 
	C417.359039,454.757660 417.951782,451.225128 422.563782,448.044617 
	C427.408966,444.703247 431.789703,443.520905 436.861694,447.658081 
	C439.104401,449.487427 442.143921,450.277313 446.278534,449.604248 
	C441.696594,446.706757 436.963501,445.531586 434.252777,441.626007 
	C439.921051,433.240662 449.381287,433.000275 459.009094,430.678955 
	C455.250519,428.334259 452.637787,430.286652 449.830231,429.678131 
	C451.340820,424.993103 456.648834,422.006653 455.261292,415.925232 
	C451.429077,418.896637 449.942566,423.125488 447.112457,426.289093 
	C442.408234,431.547699 437.388763,436.330933 431.279602,439.894806 
	C424.230927,444.006714 417.297180,448.343842 410.066010,452.107697 
	C400.910553,456.873077 397.252808,465.154480 394.669739,474.328491 
	C394.273987,475.733978 394.836792,476.947784 395.221283,478.210144 
	C397.425598,485.447449 398.878174,493.155182 397.859039,500.355804 
	C396.868134,507.356659 397.902130,514.396301 396.313202,521.242004 
	C394.897369,527.341980 391.042816,531.063477 385.200745,532.015320 
	C385.125000,529.628540 386.994049,528.176147 387.762634,526.296570 
	C388.775024,523.820862 389.839935,521.404968 389.663666,518.623474 
	C389.537994,516.640625 388.229401,513.871826 387.239166,514.148926 
	C382.997803,515.335632 378.889709,511.695709 374.529999,514.691345 
	C366.594604,520.143921 357.156921,521.303772 347.863373,522.096680 
	C326.524475,523.917358 305.284332,522.425659 284.135437,519.350891 
	C282.828247,519.160889 281.445251,518.940002 280.288818,518.355286 
	C273.143250,514.742004 265.706848,513.254150 257.683624,514.318909 
	C253.671387,514.851318 250.119598,513.538513 247.831161,509.789917 
	C247.257141,508.849609 246.530289,507.780640 245.068268,508.190491 
	C244.874725,514.481445 245.606049,514.977600 260.887726,518.585022 
	C253.509872,527.964111 259.736237,535.648987 264.511169,544.162415 
	C257.962372,546.309204 251.848831,546.759399 245.644867,545.604370 
	C243.522568,545.209229 243.898743,543.069641 243.841019,541.434814 
	C243.688385,537.112305 244.053726,532.699829 243.308273,528.483093 
	C240.769241,514.120605 230.001007,504.753754 214.959244,503.276093 
	C206.289001,502.424316 197.735535,502.914368 189.070663,505.919495 
	C187.397797,499.505066 187.123062,493.386108 186.831421,487.296844 
	C186.702835,484.612457 188.904205,484.610901 190.777832,484.915283 
	C201.614777,486.675720 212.494934,488.279541 222.664276,492.768768 
	C224.571152,493.610565 226.479752,494.577118 229.622971,494.075104 
	C223.839691,488.260925 216.787247,487.283661 210.220566,485.488739 
	C205.917358,484.312500 201.396027,483.905060 196.955856,483.268616 
	C193.605957,482.788483 192.174545,481.359497 193.528061,477.864777 
	C195.612656,472.482422 197.366440,466.956940 200.893951,461.628693 
	C209.727814,468.114899 217.198608,475.760162 226.151337,481.429474 
	C225.824661,481.747284 225.497986,482.065063 225.171310,482.382874 
	C220.991348,477.387848 216.947556,472.270294 212.593704,467.431702 
	C208.097595,462.434998 207.965744,462.553650 212.834503,457.274384 
	C212.996552,456.996704 212.965103,457.023743 212.965103,457.023743 
	C215.482010,455.842773 217.998917,454.661804 220.855942,453.321259 
	C225.558105,462.366211 231.027908,470.672668 237.589554,478.191406 
	C241.084854,482.196533 244.799316,486.024200 248.591049,489.752808 
	C252.188599,493.290405 256.123718,496.277283 261.626648,496.149719 
	C265.453522,496.060974 268.162262,499.208771 271.800293,499.924988 
	C279.147095,501.371429 286.411163,499.840363 293.652771,499.337433 
	C304.901001,498.556305 316.087433,496.892792 327.302765,495.627441 
	C332.872253,494.999054 337.707672,492.250946 342.803986,490.275909 
	C345.431152,489.257812 347.920105,487.887360 350.994843,488.646332 
	C351.703064,486.131897 352.259857,483.911407 352.960815,481.737366 
	C353.615265,479.707672 352.897217,476.261139 358.280609,478.192993 
	C328.948456,452.549408 331.898315,421.131561 338.902344,388.039551 
	C336.149841,390.567657 336.309418,394.189209 333.523621,395.456146 
	C330.586945,396.791656 327.654419,396.028961 324.373474,395.085815 
	C323.991699,395.002411 324.026215,395.034790 324.026215,395.034790 
	C321.679169,390.574341 318.639587,387.693176 312.931885,388.303040 
	C309.409363,388.679474 306.492279,386.559875 305.193115,383.068695 
	C304.106812,380.149567 302.149017,379.073059 299.151794,378.881134 
	C297.210388,378.756805 295.219208,378.108826 293.419708,377.312683 
	C288.029510,374.927826 287.317169,373.302826 288.794434,367.707123 
	C283.764191,363.894257 272.171173,368.493439 273.249268,355.956177 
	C247.334503,344.296234 234.992889,319.766235 220.893158,296.956726 
	C210.372360,279.936951 202.739914,261.344025 193.300278,243.760635 
	C176.082031,211.687958 149.291779,195.797592 113.063461,202.376160 
	C106.712326,203.529434 100.801903,206.242035 95.495285,210.126709 
	C101.838425,207.809387 107.972893,204.899338 114.819695,204.259613 
	C137.272324,202.161728 157.750549,206.672180 173.623154,223.698029 
	C189.018036,240.211380 198.752625,260.499084 208.772263,280.425568 
	C219.582382,301.924164 231.009201,322.939606 247.130615,341.051056 
	C252.794800,347.414398 259.056183,353.077515 266.099731,358.312134 
	C261.224792,359.776459 256.422699,359.634460 251.632751,358.975128 
	C250.360764,358.800079 250.034439,357.360901 249.850403,356.203644 
	C248.585602,348.251099 243.172501,344.205017 236.122833,341.918610 
	C233.369690,341.025696 232.234161,340.086609 232.424667,336.744354 
	C232.879639,328.761230 227.832092,323.450378 221.989334,319.011169 
	C219.527649,317.140808 218.318695,315.488495 218.495178,312.112427 
	C218.840378,305.509430 214.749969,300.887268 209.797958,297.216309 
	C207.386597,295.428772 206.356781,293.631805 206.615417,290.596924 
	C207.154907,284.266754 203.980865,279.381653 199.643478,275.211334 
	C197.735992,273.377289 196.756958,271.483063 196.534668,268.752838 
	C196.084595,263.224854 193.756439,258.446106 189.009552,255.254868 
	C186.858429,253.808716 185.863556,252.040192 185.784729,249.474991 
	C185.585083,242.977325 182.192200,238.501862 176.429794,235.867065 
	C173.475830,234.516388 171.630875,233.028076 171.566803,229.291183 
	C171.492416,224.953094 167.408340,221.698959 161.564972,221.370178 
	C156.709717,221.096985 153.398956,219.800690 150.697800,215.239777 
	C147.074951,209.122696 139.093018,207.876312 130.977570,211.705032 
	C127.242050,213.467407 124.607796,213.705124 121.121353,211.018326 
	C116.457489,207.424133 110.463089,208.592682 106.185638,214.110214 
	C103.207985,217.951096 100.182182,219.856720 95.227264,220.177948 
	C89.535065,220.546967 85.815704,224.479050 84.004494,230.029007 
	C85.751343,231.716034 88.280815,229.854599 90.596153,231.730728 
	C87.306404,236.074432 83.222260,239.052765 77.844803,240.214355 
	C71.278824,241.632690 66.761223,246.125198 62.531384,250.796707 
	C60.425003,253.123016 60.753479,256.367065 61.656460,259.960449 
	C65.577126,257.474365 69.080284,254.545898 74.771721,253.818909 
	C71.223618,260.832916 66.219772,266.692841 66.189987,275.252930 
	C71.058365,270.938965 74.300743,265.695862 80.219742,263.801636 
	C81.679359,266.696381 79.953026,268.455627 78.872749,270.128357 
	C76.708450,273.479706 74.232109,276.631470 71.849106,279.839233 
	C67.679832,285.451508 68.241493,288.406006 74.204170,291.714722 
	C75.609718,292.494659 76.517136,293.556152 76.794411,295.093018 
	C75.987007,297.041809 72.900925,296.715088 72.861565,299.390137 
	C74.931976,302.587891 78.966240,299.643768 81.628860,302.124115 
	C79.598892,306.329285 76.085518,306.806244 72.151695,305.913666 
	C69.672791,305.351227 67.586571,303.895905 65.900826,301.970581 
	C64.581322,300.463593 61.977848,299.947174 61.567284,301.224091 
	C59.816200,306.670105 56.820992,303.792480 53.769852,303.316467 
	C54.050598,302.359955 54.059517,301.616760 54.333271,301.501251 
	C60.898769,298.731049 60.657227,293.930817 58.841763,288.158051 
	C57.105392,282.636749 56.066341,276.896149 54.548409,270.528809 
	C53.503113,272.770538 55.354057,275.300018 52.805679,276.050964 
	C50.825062,276.634613 48.848419,276.423035 47.378384,274.706543 
	C47.390629,272.380981 49.711372,273.202881 50.859550,271.900940 
	C47.908070,268.348724 48.258205,265.112793 52.498661,262.583954 
	C52.226631,257.483521 49.947784,253.730728 45.048264,251.861496 
	C42.173588,250.764771 39.879040,251.727798 38.167301,254.070740 
	C42.318642,260.528839 32.328762,263.489960 35.128777,269.747498 
	C36.164383,270.187378 37.802711,270.883240 39.371773,271.549713 
	C41.265484,271.051239 41.368729,269.374847 41.971939,268.063263 
	C43.291164,265.194794 44.311119,262.172485 46.365974,259.685944 
	C47.329533,258.519989 48.349506,256.956604 49.995014,258.111359 
	C51.636631,259.263336 50.573616,260.751282 49.747406,262.052277 
	C43.734356,271.520752 43.097134,281.397827 46.090549,292.202576 
	C50.657433,308.686707 37.566181,325.100922 20.279345,325.319702 
	C19.539827,323.268158 22.549715,323.054230 22.156485,320.716797 
	C21.506418,318.949951 18.405785,318.109772 18.298349,314.622894 
	C30.589046,316.555725 40.655193,314.138123 42.575531,299.786469 
	C43.907505,289.831970 40.073822,282.982666 32.415199,280.288391 
	C32.313179,284.418427 37.040016,284.232788 38.241577,287.158722 
	C36.670166,289.345398 34.140907,288.739624 31.975746,289.262909 
	C31.857992,291.525116 34.883942,291.382874 35.074394,293.176514 
	C33.210724,297.232635 28.235088,290.855316 26.574654,295.957031 
	C28.515800,298.552368 31.379519,299.899292 34.463554,301.628082 
	C28.939354,305.697205 24.286572,302.357239 19.801071,300.680511 
	C16.502235,299.447357 16.444613,295.934509 16.754040,292.887573 
	C17.156429,288.925232 17.712719,285.075195 20.932369,281.999176 
	C24.252630,278.826996 25.143972,274.520538 24.782730,270.017181 
	C24.378513,264.978119 24.532881,260.042572 26.598387,255.303421 
	C27.283752,253.730911 27.414545,252.190979 26.054817,250.676575 
	C23.038649,247.317261 23.319305,243.471039 24.496864,239.406967 
	C26.460497,232.629898 29.872623,226.948578 35.646046,222.702713 
	C42.527534,217.641953 43.635925,209.698868 44.480900,202.213043 
	C45.918568,189.476440 49.644035,177.850540 57.449940,167.615555 
	C59.522579,164.897934 60.723026,161.858841 60.730152,158.368729 
	C60.733551,156.704620 61.027275,155.052032 62.884735,153.444031 
	C64.579391,157.694550 65.582779,161.640305 63.907288,165.927567 
	C63.306183,167.465683 62.284512,169.046219 62.316647,170.589432 
	C62.459743,177.460999 62.329285,184.097565 55.724178,188.464005 
	C55.255947,188.773544 54.933365,189.638580 54.922562,190.251999 
	C54.834152,195.271240 55.520679,200.452408 50.743523,204.128937 
	C50.038353,204.671631 50.588890,206.062180 51.172020,206.913727 
	C52.973289,209.544083 53.980862,212.516891 54.903469,216.434204 
	C59.124866,211.261887 63.578415,207.338776 69.241676,205.352570 
	C74.621933,203.465637 79.285851,198.964508 85.843452,200.243561 
	C90.972725,186.997559 103.898743,187.012115 115.021103,184.914459 
	C151.131134,178.104187 179.212372,193.003281 202.844223,218.904129 
	C209.382904,226.070572 214.920822,233.944595 219.613083,242.458008 
	C228.675461,258.900360 242.892456,269.584442 259.501099,277.453217 
	C265.815796,280.444977 272.341248,282.902405 278.951263,285.222382 
	C284.463684,287.157135 288.582672,286.841095 291.801880,281.251434 
	C291.992798,280.996704 291.955933,281.020111 291.955933,281.020111 
	C295.165649,280.020599 298.774567,280.344391 301.817993,278.306305 
	C296.343384,273.047272 289.566040,272.046875 283.199799,275.911133 
	C278.921814,278.507874 274.405396,279.727722 269.547546,279.576263 
	C266.856750,279.492340 263.695679,279.529480 262.987091,275.374695 
	C262.982849,275.006683 262.942535,275.025208 262.942535,275.025208 
M419.590820,342.048218 
	C428.199158,346.437256 433.283661,354.338989 439.216797,362.475647 
	C437.304688,352.279724 423.521820,339.141998 416.400970,340.129730 
	C417.338684,340.683258 418.187653,341.184418 419.590820,342.048218 
M67.499405,225.345856 
	C68.637398,229.061752 70.706726,226.460190 72.031837,225.773315 
	C78.518639,222.410919 78.979874,215.275070 82.145149,209.811493 
	C78.525665,215.984116 72.801308,220.081650 67.499405,225.345856 
M340.867950,369.378326 
	C340.481445,371.929260 342.004700,373.939117 342.793427,376.984283 
	C344.336273,372.810822 347.697662,370.498352 348.578491,366.803802 
	C345.261047,365.722260 344.514069,370.570801 340.867950,369.378326 
M32.796665,274.917267 
	C32.446415,275.682678 32.387043,277.091187 33.238514,276.688019 
	C36.019821,275.371063 37.233543,278.033234 39.329224,279.005249 
	C40.424145,272.437134 35.844894,274.976440 32.796665,274.917267 
M69.500862,232.293777 
	C74.426125,233.389542 76.617737,230.619049 78.154861,225.786011 
	C75.576920,229.063858 71.840111,229.353561 69.500862,232.293777 
M58.283165,267.883972 
	C58.130138,267.828217 57.958851,267.702606 57.829247,267.736450 
	C57.700443,267.770111 57.502438,267.989685 57.524174,268.084198 
	C58.734283,273.345093 59.964287,278.601379 61.192299,283.858154 
	C60.557770,278.608307 60.566448,273.259186 58.283165,267.883972 
z"/>
<path fill="#000000" opacity="1.000000" stroke="none" 
	d="
M641.000000,327.531342 
	C638.064087,323.608582 637.489807,318.356934 635.810059,313.515045 
	C632.372437,303.606049 629.117981,293.639648 624.984314,283.982971 
	C622.807861,278.898590 620.223083,274.109833 616.781677,269.748779 
	C614.860107,267.313690 612.942627,264.726654 613.102844,261.557068 
	C614.645874,259.342285 616.397034,262.247223 618.210449,260.537537 
	C619.227539,256.591095 616.045105,254.258438 613.600952,251.803543 
	C609.138550,247.321640 604.381714,243.134109 599.872314,238.697205 
	C598.014587,236.869354 596.225159,234.844482 596.114441,232.204147 
	C598.109009,229.547272 600.429993,232.352509 602.572083,231.172989 
	C600.227661,226.969315 596.136780,224.463074 593.110779,221.000702 
	C590.249878,217.727341 586.067017,215.463531 584.817871,210.874603 
	C587.794556,208.273529 590.804382,212.106339 593.784058,210.073532 
	C591.383057,206.746933 587.788147,204.893204 584.839722,202.340897 
	C580.056885,198.200562 575.144470,194.209625 570.374146,190.055222 
	C569.017212,188.873505 567.382996,187.351685 568.100342,185.388382 
	C568.996338,182.936310 571.470703,183.791641 573.359558,183.775192 
	C575.137756,183.759689 576.918701,184.065659 578.893372,184.248230 
	C578.343445,181.712708 576.345764,181.002533 574.763550,179.925339 
	C568.842896,175.894547 562.878357,171.927979 556.977966,167.867935 
	C555.614746,166.929916 554.365356,165.791336 553.200745,164.609833 
	C552.031311,163.423447 550.779358,162.014999 551.382812,160.232330 
	C552.083130,158.163635 554.100708,158.804840 555.696472,158.669342 
	C556.637817,158.589386 557.684326,159.066132 558.757996,157.908264 
	C556.567932,155.080551 553.147400,154.727798 550.130249,153.768036 
	C546.646301,152.659760 543.029541,151.973831 539.527588,150.915466 
	C537.062927,150.170593 534.823914,148.939011 534.771667,145.870377 
	C534.718628,142.758377 537.430176,142.974930 539.331726,142.226379 
	C540.692688,141.690643 542.298401,141.508148 542.991699,139.727463 
	C542.506897,137.142303 540.100159,136.820679 538.193237,136.143677 
	C533.490601,134.474152 528.681458,133.105560 523.970581,131.457672 
	C522.162598,130.825256 519.812561,130.432266 519.535400,127.992050 
	C519.281921,125.760445 521.371948,125.038132 522.836182,124.018646 
	C523.382019,123.638519 524.057434,123.444374 524.610535,123.194023 
	C521.613220,118.707634 516.232849,119.942787 513.537598,116.420418 
	C515.109680,113.175690 517.033203,114.163536 519.192261,115.546318 
	C528.926453,121.780502 537.476562,129.422684 545.623596,137.556747 
	C573.882568,165.770920 595.075134,198.904800 613.007935,234.310760 
	C614.737305,237.725113 616.514038,241.115479 618.282776,244.509674 
	C618.429871,244.791809 618.684570,245.017822 619.689392,245.059372 
	C618.770813,242.450104 617.998535,239.778137 616.911316,237.241135 
	C604.148926,207.460358 587.239380,180.001846 566.170837,155.635590 
	C552.322693,139.619934 536.688416,124.902489 519.693542,111.874031 
	C514.887390,108.189613 511.317444,102.822662 504.452026,102.665451 
	C502.438812,97.395981 497.800476,99.430946 494.064484,98.899055 
	C492.103760,98.619919 490.371765,97.511902 490.118225,95.569496 
	C489.584442,91.479965 486.996338,91.797386 484.281433,92.568535 
	C481.677673,93.308121 479.808258,92.212509 477.419739,91.386261 
	C473.135315,89.904152 468.267242,89.940117 463.595276,90.291412 
	C462.973755,90.338150 462.345581,91.107849 461.785492,91.036018 
	C455.388062,90.215462 451.395264,93.173080 446.780426,97.615768 
	C443.366394,100.902412 445.506409,104.568443 442.942596,107.392494 
	C441.739868,108.323830 440.377533,106.086960 438.664764,107.330307 
	C438.399261,111.808868 436.046448,116.687561 441.134705,120.595009 
	C443.505280,122.415413 440.665955,124.479942 440.657257,126.662613 
	C443.188873,128.713409 449.370941,128.230713 446.209290,134.106705 
	C450.004700,136.798294 456.404388,129.061386 458.442688,137.801697 
	C461.511261,135.679153 463.785675,131.422379 468.892151,133.757034 
	C470.083649,134.301788 470.914124,130.582657 472.016876,130.404816 
	C477.885437,129.458389 477.524109,123.524872 480.183502,120.200813 
	C483.194183,116.437737 482.063812,110.672836 481.962219,105.750618 
	C481.904236,102.941887 481.387787,100.181000 482.533234,97.508041 
	C495.505432,98.495972 498.291931,101.679649 497.864929,115.871201 
	C495.932373,126.264771 491.451904,134.505615 484.685181,141.779190 
	C489.746246,141.380630 491.998749,138.020142 493.571442,134.310959 
	C496.047119,128.472061 497.737610,122.372589 497.965363,115.960205 
	C499.102875,112.615868 498.404480,107.807358 504.471130,108.608635 
	C507.218689,108.971527 508.280029,109.771667 507.759369,112.705406 
	C506.834167,117.918785 503.866394,125.098984 499.303284,131.920532 
	C501.140747,132.778259 503.876892,130.357834 504.918610,133.033829 
	C506.020020,135.863113 504.393982,138.214050 502.550049,140.224335 
	C499.293091,143.775085 495.000641,145.711685 490.543091,147.103058 
	C486.209381,148.455780 481.994690,149.495529 485.266418,155.167435 
	C483.015137,157.415054 480.625977,157.294052 478.316986,157.229752 
	C470.818054,157.020935 463.386993,156.129654 456.026184,154.700760 
	C453.765869,154.261978 452.306885,154.102356 450.923859,156.874329 
	C448.888153,160.954483 444.850159,159.522751 441.699524,158.233719 
	C434.809387,155.414749 430.959961,149.532928 427.760040,143.185379 
	C426.586914,140.858307 426.058289,138.381287 422.213104,139.010437 
	C419.817780,139.402359 419.014618,136.498001 418.321045,134.454132 
	C416.578369,129.318558 416.684357,123.978073 416.614105,118.645653 
	C416.571381,115.400993 417.037201,112.015877 412.361420,110.867065 
	C409.717407,110.217438 410.909607,107.592018 411.559204,105.746620 
	C413.718231,99.613518 418.070343,94.969078 422.231995,90.200233 
	C424.783020,87.277000 428.374451,84.371719 421.734802,81.285828 
	C429.636475,73.858932 439.544220,75.460190 448.404938,73.421295 
	C448.347412,69.006615 446.210571,67.534592 442.051117,68.590149 
	C439.436310,69.253708 436.763824,69.915222 434.919678,66.964111 
	C434.276947,65.935600 433.194672,66.100365 432.213165,66.239578 
	C427.910828,66.849823 424.273804,66.017418 421.987579,61.861206 
	C421.500122,60.975006 420.572174,60.541862 419.471741,60.488132 
	C411.771301,60.112156 408.046112,54.605801 404.836578,48.739185 
	C402.941315,45.274811 404.366180,43.214954 408.335114,42.484467 
	C419.552063,40.419994 429.659424,44.471058 439.907867,47.875355 
	C441.105408,48.273148 442.082764,49.388496 443.991394,48.981655 
	C440.678802,46.880970 437.295807,45.299248 435.792206,41.685730 
	C437.790100,39.899757 439.373749,41.128170 440.890015,41.999447 
	C443.487213,43.491833 445.971283,45.183060 448.583862,46.646118 
	C451.083496,48.045940 453.495209,49.313725 449.313751,52.086761 
	C457.333374,56.714218 465.387421,59.950195 471.807068,65.925781 
	C469.770782,68.515762 467.214874,66.450272 464.732208,67.566391 
	C470.625702,69.969734 476.155060,72.092003 481.351715,75.001389 
	C484.417175,76.717598 487.695892,75.743370 490.037659,73.246300 
	C492.792725,70.308601 495.218018,71.090996 497.829681,73.190674 
	C504.837769,78.824783 511.843079,84.462311 518.866638,90.077095 
	C519.486084,90.572289 520.230591,90.910927 520.737061,91.214417 
	C523.505859,90.210907 521.928040,86.875793 525.117737,85.418098 
	C529.259583,91.091309 533.454163,96.970840 537.793152,102.741745 
	C542.054382,108.409294 545.926208,114.467567 551.800903,118.391495 
	C554.208679,117.652359 554.461365,114.808525 557.538147,114.734177 
	C563.433228,124.516129 566.807434,136.191284 574.364929,145.388992 
	C577.215759,144.157684 576.934326,140.522018 580.491028,139.916870 
	C586.074219,149.426285 588.607300,160.616898 594.313232,169.996216 
	C596.941467,170.260483 597.174438,167.333847 600.202515,167.242935 
	C605.444336,178.007721 606.342529,190.633926 610.963440,202.036118 
	C613.449951,201.199997 613.967163,199.023727 615.322571,197.653198 
	C616.360413,196.603806 617.242737,195.007889 618.963074,195.642639 
	C620.734924,196.296402 621.116333,198.170410 621.193481,199.813583 
	C621.528503,206.951340 621.708618,214.096191 621.985291,221.236923 
	C622.066833,223.340683 622.280579,225.439316 622.453003,227.804810 
	C626.169250,226.235336 626.174500,221.735687 630.428345,220.463501 
	C634.159912,229.637634 632.293518,239.607880 634.109314,249.037766 
	C636.587036,249.032455 638.006470,245.907608 640.686279,247.878662 
	C641.000000,274.354218 641.000000,300.708466 641.000000,327.531342 
M434.751587,95.304871 
	C439.468536,89.097527 445.752350,85.171082 453.150696,83.070641 
	C468.164124,78.808235 482.740753,79.609558 496.761353,87.001862 
	C532.406189,105.795410 559.664612,133.712769 582.569519,166.227875 
	C598.360352,188.644104 610.999695,212.811661 620.853149,238.421692 
	C621.099243,239.061127 620.823303,240.482941 622.426147,240.252853 
	C613.238464,210.318771 597.284851,183.815811 579.301697,158.865097 
	C564.964294,138.972672 548.906799,120.137177 529.650330,104.341553 
	C510.694183,88.792191 490.974548,76.285110 465.031342,77.130966 
	C443.555756,77.831146 428.306732,88.684776 422.188385,109.404961 
	C419.861023,117.286705 420.228577,125.036354 425.025940,131.914062 
	C431.343231,140.970779 440.177582,146.711472 450.770874,149.657242 
	C452.682678,150.188858 454.721100,151.118271 457.479004,150.081360 
	C455.441406,149.669067 453.964508,149.496063 452.566284,149.066818 
	C443.828522,146.384293 435.523254,142.952148 430.929718,134.285843 
	C423.777283,120.791824 425.562073,108.000870 434.751587,95.304871 
M456.479248,73.756683 
	C463.481873,72.965439 454.897736,67.214020 460.302429,65.658936 
	C452.305664,64.330811 455.504486,68.924850 455.931274,71.802589 
	C454.410126,71.991692 453.273560,72.132988 451.677826,72.331367 
	C453.182220,73.695724 454.493134,73.687187 456.479248,73.756683 
z"/>
<path fill="#000000" opacity="1.000000" stroke="none" 
	d="
M356.990540,273.017212 
	C359.206818,272.778198 361.440674,272.522736 363.674500,272.267303 
	C363.648071,271.768433 363.621643,271.269562 363.595215,270.770721 
	C354.028046,266.266998 344.369171,271.067230 333.488434,271.894470 
	C361.297516,240.626999 359.334229,213.098770 325.010040,189.918060 
	C325.316650,187.347122 327.118683,186.821747 328.449982,185.979294 
	C351.090363,171.652267 375.786591,163.117325 402.438629,160.730988 
	C463.491669,155.264511 516.699463,174.496094 563.137390,213.381973 
	C601.767029,245.729446 625.839355,287.004608 633.906006,336.795990 
	C640.526733,377.662994 634.936462,417.407288 618.699341,455.535400 
	C601.660522,495.546204 578.273132,531.261963 546.493164,561.213135 
	C538.118103,569.106262 529.203186,576.353943 519.753479,582.929932 
	C518.561829,583.759216 517.438965,584.900452 515.446960,584.559265 
	C514.708862,580.658325 517.717285,578.648071 519.895142,576.491455 
	C532.811584,563.701050 545.095459,550.337463 556.536255,536.218506 
	C571.148804,518.185364 584.682800,499.435150 593.903748,477.936676 
	C598.154236,468.026947 600.844482,457.841217 599.813049,446.886902 
	C599.157471,439.923889 596.595520,433.789520 591.346863,429.350586 
	C587.856873,426.398956 587.857239,423.728027 588.988953,419.816956 
	C594.837158,399.606323 599.138367,379.148254 597.746887,357.888763 
	C597.471619,353.683960 596.622192,349.634369 595.124695,345.741119 
	C591.654480,336.718964 583.569397,332.219513 573.998962,333.838470 
	C565.766052,335.231140 565.902466,335.212189 564.745239,326.892334 
	C562.128479,308.079407 558.593323,289.464905 551.818787,271.621399 
	C549.741211,266.149384 547.243835,260.876770 543.366882,256.407196 
	C537.858521,250.056946 532.003418,249.774261 525.544067,255.170441 
	C521.822205,258.279724 519.425354,262.540710 515.905457,266.039886 
	C512.538574,264.196167 510.653778,261.187012 508.368408,258.633057 
	C498.477631,247.579819 488.650757,236.465683 476.687012,227.530426 
	C473.340881,225.031311 469.806488,222.814774 465.855438,221.388458 
	C459.552551,219.113144 455.092621,221.119476 452.740601,227.411880 
	C450.908936,232.312271 450.957733,237.540955 450.482178,242.667923 
	C450.376953,243.802338 450.799011,245.009506 449.906647,246.111191 
	C447.875275,246.716568 446.581879,245.097092 445.059418,244.265579 
	C437.308594,240.032318 429.570404,235.790070 421.017792,233.314941 
	C418.601501,232.615662 416.165344,232.191589 413.641998,232.193863 
	C407.073730,232.199753 404.231689,234.988403 404.348938,241.695984 
	C404.467834,248.495239 407.082275,254.662506 409.551147,260.850616 
	C410.396698,262.970001 411.896088,264.922272 411.378418,267.436096 
	C409.543274,269.019257 407.806030,267.617706 406.200073,267.152863 
	C395.058014,263.927673 384.825287,264.220367 375.104553,272.002258 
	C370.460388,275.720123 363.647369,274.775604 357.795105,275.800598 
	C356.579193,276.013580 356.427032,274.654358 356.927734,273.273102 
	C357.045624,272.970825 357.008087,273.000824 356.990540,273.017212 
z"/>
<path fill="#000000" opacity="1.000000" stroke="none" 
	d="
M323.972198,394.989014 
	C325.508545,396.201233 327.064392,397.426849 328.653809,398.678894 
	C328.871887,400.881805 327.026154,401.807556 325.851196,403.090485 
	C319.076111,410.488525 312.865875,418.290100 308.386566,427.333069 
	C306.234070,431.678497 304.637329,436.186554 304.044861,441.064392 
	C303.342712,446.845032 297.342926,450.709229 291.699463,449.245422 
	C289.342560,448.634125 289.188995,448.198395 289.878876,443.367615 
	C268.278351,435.328461 247.471756,425.499939 228.053482,412.631805 
	C208.384399,399.597504 196.762863,379.980560 182.877991,361.600342 
	C181.861542,361.996521 182.084137,363.568573 182.687866,364.505341 
	C185.412552,368.733063 184.175446,373.191193 183.785797,377.616333 
	C183.669128,378.941406 183.083710,380.411133 183.467377,381.563416 
	C185.602280,387.975067 184.023819,391.648529 175.801071,391.280548 
	C180.559509,393.258850 179.613617,395.770996 177.819931,398.436218 
	C174.605667,403.212341 168.705750,404.469604 161.687103,401.081482 
	C167.661133,399.061951 166.119522,391.643372 171.905609,389.855438 
	C171.713699,389.448059 171.656219,389.059265 171.432510,388.889648 
	C163.460037,382.843231 163.530151,382.877563 167.495682,373.756226 
	C168.748917,370.873566 169.893326,367.838470 170.404251,364.759735 
	C171.521973,358.024567 171.076797,351.733337 166.060745,346.075928 
	C160.431519,339.726929 155.304398,332.953583 148.888199,327.308014 
	C143.810867,322.840485 138.364044,319.093994 131.649826,317.681946 
	C129.188370,317.164276 128.486176,316.012238 128.588409,313.564728 
	C128.834106,307.683075 130.813843,302.156647 131.777451,296.427216 
	C132.377243,292.861053 134.918396,294.192932 136.815979,294.980896 
	C146.241562,298.894745 153.047684,305.852386 158.539124,314.213470 
	C160.179672,316.711304 161.407822,319.476288 162.943359,322.048157 
	C163.910629,323.668213 164.645432,325.672424 167.776566,325.859375 
	C161.728012,313.602356 154.521149,302.885345 143.927200,294.750916 
	C144.543686,292.210236 146.387436,290.630066 148.014160,288.243774 
	C149.060425,287.506226 149.628677,287.166992 150.196930,286.827759 
	C161.977814,282.639038 161.967239,282.641785 165.115677,294.711121 
	C167.509125,303.886200 169.847473,313.090363 173.751892,321.770844 
	C174.852478,324.217712 175.708115,327.138031 179.213928,328.011536 
	C180.727264,325.208801 179.250275,323.098480 177.994858,321.065765 
	C173.873474,314.392639 169.955368,307.631104 167.870483,299.987030 
	C165.876236,292.675323 166.834351,291.254944 174.217606,290.486969 
	C175.541382,290.349274 176.865570,290.215576 178.189484,290.079224 
	C182.409760,289.644623 184.249924,290.886719 184.498123,295.781403 
	C185.766586,320.795349 190.725708,344.957825 207.706833,364.426117 
	C222.148331,380.982758 239.925125,393.716400 259.417542,403.929352 
	C260.880463,404.695862 262.473206,405.328400 264.080658,405.683441 
	C268.620453,406.686127 273.512329,407.149078 272.456390,414.009552 
	C275.302704,413.028229 274.351318,410.131531 276.757751,409.499268 
	C278.187683,410.625732 279.840393,411.927673 282.030365,413.652832 
	C282.054260,409.815094 280.255890,407.283112 278.881104,404.639160 
	C274.728241,396.652466 270.634949,388.650269 269.298279,379.588074 
	C269.225586,379.095184 269.035126,378.617340 268.985382,378.123810 
	C268.530762,373.614685 267.578491,367.712921 271.215820,365.512939 
	C274.713470,363.397461 279.286591,367.964600 283.584778,368.948730 
	C283.735382,368.983246 283.965149,369.115814 283.981720,369.228607 
	C285.557098,379.939941 297.184875,378.954742 302.640381,385.211121 
	C304.734497,387.612671 307.962067,389.091980 311.050995,389.263214 
	C316.027557,389.539093 319.821716,391.723969 323.693726,394.926208 
	C324.026215,395.034790 323.991699,395.002411 323.972198,394.989014 
z"/>
<path fill="#000000" opacity="1.000000" stroke="none" 
	d="
M69.219093,453.120087 
	C45.298786,441.371552 34.454979,420.172150 28.043203,395.871246 
	C23.566908,378.905914 21.384260,361.584320 20.823221,344.061646 
	C20.625221,337.877594 20.863131,337.738464 27.242191,337.666199 
	C36.013405,337.566864 35.691856,337.762238 35.129154,346.730103 
	C34.825226,351.573792 36.627361,356.551056 37.503712,361.463745 
	C37.558605,361.771484 37.936836,362.026276 37.978176,362.331024 
	C38.812206,368.478088 39.620224,374.628632 40.423328,380.779846 
	C40.443356,380.933228 40.258961,381.156799 40.319691,381.255157 
	C43.641140,386.636200 40.827610,393.286469 43.841782,398.653412 
	C45.543648,401.683685 44.942978,404.764343 44.824467,408.119537 
	C49.510906,409.976349 51.584961,413.276093 49.651726,418.550568 
	C53.312481,420.354218 56.226280,422.652588 56.461079,427.028198 
	C56.488316,427.535706 57.169331,428.340332 57.660549,428.438171 
	C61.529140,429.208435 63.405922,432.106445 64.979500,435.389832 
	C69.806969,434.544067 74.520798,433.549042 77.592934,438.697571 
	C78.189850,439.697968 79.603661,438.691162 80.342766,438.999207 
	C86.388222,441.518768 92.757919,441.588623 99.123634,441.806702 
	C99.597885,441.822937 100.064377,442.065979 100.867722,442.301147 
	C103.255058,438.373962 106.505119,435.955597 111.506317,437.457489 
	C112.969955,437.897064 114.039505,437.168762 114.747696,435.796509 
	C115.201103,434.917938 115.718727,433.573120 116.433060,433.407013 
	C122.564240,431.981354 123.478592,426.347687 126.019302,421.996307 
	C126.526901,421.126953 127.472488,420.393707 126.837822,419.373322 
	C124.108452,414.985046 127.083923,412.718536 130.371735,410.531067 
	C128.624451,407.295746 126.502686,404.387817 127.520264,400.585846 
	C127.662445,400.054626 126.834053,399.170654 126.309013,398.579559 
	C125.764114,397.966095 124.571930,397.587555 124.470734,396.973175 
	C123.558350,391.433868 119.159195,387.796448 117.071999,382.975311 
	C116.207542,380.978577 115.926552,379.256592 113.353607,379.271729 
	C111.723358,379.281342 110.411201,378.470367 109.643532,377.093628 
	C108.444077,374.942505 106.911316,374.396851 104.713959,375.545227 
	C103.343758,376.261322 102.067665,375.699890 100.995895,374.865570 
	C99.348625,373.583252 97.772385,373.247955 96.024818,374.634552 
	C95.653412,374.929199 94.969109,375.309967 94.683800,375.161438 
	C89.307465,372.363068 83.936760,376.521912 78.555656,375.116577 
	C75.597672,374.344025 68.471886,378.681305 68.644783,381.532837 
	C69.056717,388.326599 64.460464,389.839539 59.483906,391.243866 
	C58.709198,391.462524 57.928612,391.660370 56.890701,391.937195 
	C57.604385,396.091644 59.590042,400.373108 54.676571,403.582947 
	C57.989689,406.376343 57.130779,410.313141 58.113689,413.698669 
	C58.729187,415.818756 57.036766,417.003357 55.008923,417.421509 
	C53.542599,417.723877 51.934013,417.436584 51.935146,415.809235 
	C51.939400,409.684631 47.966675,404.962708 46.396778,399.385651 
	C45.139965,394.920776 46.244568,391.202393 48.102329,387.448975 
	C50.240555,383.128998 52.564507,378.900909 54.965675,374.332520 
	C49.793991,375.106934 49.592323,371.693665 49.928898,368.178040 
	C50.187012,365.481964 51.186470,362.815948 53.428780,361.199554 
	C58.554714,357.504425 63.803852,354.009125 65.555191,346.752747 
	C70.977997,352.086639 68.574875,357.025513 66.994896,362.483215 
	C71.500778,360.549438 75.398239,358.876770 79.268494,357.215790 
	C78.319542,353.088531 83.836067,346.795532 89.324463,345.900513 
	C93.861618,345.160645 98.467911,344.844818 103.340546,344.308380 
	C103.327080,349.450104 98.834984,350.974457 95.446495,354.448730 
	C99.801590,355.758514 103.458252,357.863007 107.492111,355.582550 
	C112.297272,352.866150 117.062424,353.082794 121.871307,355.141968 
	C125.745247,356.800781 129.500870,358.735901 133.765640,360.765778 
	C130.585617,363.532776 126.896194,362.584076 123.649719,364.044891 
	C126.058006,367.616943 128.270798,370.136688 132.738663,368.788177 
	C134.928101,368.127380 137.188889,368.759613 138.678085,370.545471 
	C142.579117,375.223602 146.317902,380.037048 150.049301,384.706421 
	C149.550140,385.338898 149.388870,385.764648 149.149384,385.814484 
	C142.165359,387.267303 142.183914,387.258484 143.199203,394.451599 
	C143.452744,396.247833 143.533600,398.068420 143.686600,399.796356 
	C152.184372,401.658417 154.749710,412.028107 150.287445,426.613312 
	C144.384613,422.017822 145.042206,415.174225 143.573227,409.268982 
	C142.562759,413.442505 141.587357,417.646423 140.519272,421.826630 
	C139.681656,425.104767 138.445404,427.956787 141.553543,431.282166 
	C143.589722,433.460632 142.307907,437.263733 141.524658,440.402588 
	C139.822327,447.224518 134.228699,451.805267 131.854538,458.931488 
	C126.741806,452.931000 130.478409,447.062012 130.578537,441.249512 
	C112.865967,454.685150 93.587517,459.433105 71.486084,454.093628 
	C70.297455,453.647247 69.758278,453.383667 69.219093,453.120087 
z"/>
<path fill="#000000" opacity="1.000000" stroke="none" 
	d="
M271.029602,210.980103 
	C268.198334,213.215149 268.343201,216.604004 267.908783,219.644928 
	C267.016418,225.891174 266.537872,232.179092 268.534027,238.283783 
	C270.105347,238.588623 269.574615,236.519592 271.354980,236.776825 
	C274.017395,241.044922 276.869080,245.616440 279.759186,250.249557 
	C273.686676,252.919495 272.769409,252.273346 269.670166,243.701920 
	C263.584045,246.965042 264.011597,240.297440 260.682709,238.281693 
	C264.288483,235.838638 264.204712,233.867935 261.989899,230.429092 
	C258.552490,225.091995 259.875977,218.510757 259.797852,212.398773 
	C259.768127,210.075485 262.722046,211.265427 263.605316,209.347122 
	C259.848022,203.701477 260.608215,196.069244 263.465149,191.955643 
	C267.404785,186.283112 264.892487,181.861343 264.853241,176.876724 
	C264.828369,173.719162 266.683258,171.616287 268.709076,169.597885 
	C278.774994,159.568848 289.911346,150.971039 301.933167,143.336136 
	C317.502136,133.448456 333.312195,123.863701 347.633514,112.115189 
	C322.086060,127.723114 296.737183,143.631622 272.240417,162.049683 
	C272.566376,156.214493 276.733765,150.691803 280.830139,149.548676 
	C285.080383,148.362595 288.435669,146.012177 289.755096,141.621735 
	C290.744324,138.330139 292.376831,136.611099 296.130524,136.790421 
	C300.905273,137.018509 304.347565,134.229050 306.775879,130.423050 
	C308.351990,127.952751 310.077148,126.781097 313.137238,126.582771 
	C319.811646,126.150223 325.212250,123.094727 328.738251,117.209167 
	C329.886383,115.292740 330.990784,113.504829 333.685028,113.794525 
	C340.153778,114.490112 343.893646,110.467407 346.917023,105.672699 
	C348.458588,103.228012 350.059265,101.897438 353.120087,101.552116 
	C359.080902,100.879608 362.297699,96.539612 363.475464,88.092018 
	C363.850647,85.401154 364.298401,83.063591 366.141174,80.834229 
	C369.377472,76.918976 366.641602,73.534508 364.206451,70.618965 
	C361.058929,66.850433 361.237762,63.162491 363.936981,57.606121 
	C369.910095,68.037254 371.882324,77.678391 368.345276,88.487686 
	C373.494263,83.477921 374.756409,71.094925 370.693237,63.992462 
	C367.553955,58.504959 364.004517,53.228897 359.751434,48.509853 
	C357.301514,45.791519 354.770325,43.123409 350.628387,43.015335 
	C348.672729,42.964310 347.120880,41.989902 346.783691,39.472752 
	C348.907013,37.653400 350.986877,38.542412 353.016724,39.775890 
	C356.854950,42.108299 360.512024,44.796402 364.520508,46.778130 
	C371.207520,50.084076 376.160797,49.219631 380.266327,44.621269 
	C380.090027,42.914913 378.531311,42.826199 377.408173,42.279690 
	C375.720001,41.458233 373.440735,40.389267 373.433990,38.767185 
	C373.405792,31.971212 368.254974,29.244215 363.034363,25.701324 
	C366.348724,24.025030 368.535309,25.384592 370.555023,26.445070 
	C379.133453,30.949369 384.911407,38.196774 389.455109,46.496891 
	C401.891388,69.214676 395.417816,101.971313 375.086700,118.171837 
	C359.178375,130.848145 341.283722,140.676285 324.848145,152.616562 
	C314.205444,160.348373 302.867706,167.246323 292.914337,175.770721 
	C282.260223,184.895264 273.610016,195.958206 270.926636,210.722580 
	C271.002777,211.017197 271.029602,210.980103 271.029602,210.980103 
z"/>
<path fill="#000000" opacity="1.000000" stroke="none" 
	d="
M274.966614,63.015331 
	C289.388885,57.800926 303.420990,51.720272 316.343536,43.393353 
	C320.352539,40.810047 319.818237,36.563736 318.749847,32.534412 
	C317.359070,27.289270 313.363556,25.061859 308.488434,24.410702 
	C302.391602,23.596365 296.609985,25.726257 290.868622,27.303991 
	C284.013763,29.187704 277.093781,29.760265 270.108185,29.147549 
	C266.785309,28.856091 262.351196,28.816370 261.936218,24.244326 
	C261.539398,19.872118 264.951050,17.448833 268.633911,15.875729 
	C272.398346,14.267794 276.217407,15.104623 279.851532,16.387831 
	C285.507111,18.384815 290.930969,18.063236 296.361176,15.626204 
	C298.013916,14.884466 299.839996,14.164015 301.607178,14.110600 
	C306.928680,13.949753 311.654663,13.498642 315.824738,9.040502 
	C318.557892,6.118492 323.439667,7.230229 327.310242,8.292278 
	C331.311340,9.390143 335.346405,10.652021 339.053314,12.478121 
	C348.623566,17.192671 358.131073,15.948014 367.650543,12.720747 
	C376.094604,9.858063 393.865662,13.896260 398.247803,20.133524 
	C394.567535,21.238001 391.265411,22.876888 387.407074,20.424231 
	C384.900146,18.830648 381.998749,16.981060 379.288940,20.803837 
	C378.724243,21.600462 376.335175,21.642267 375.003540,21.265707 
	C368.478119,19.420511 362.639557,20.221273 357.472076,25.421810 
	C367.577271,27.536732 369.139313,37.553059 374.765839,44.333080 
	C372.835541,46.348358 370.635498,46.529716 368.036682,45.768497 
	C363.995117,44.584694 360.179993,42.929523 356.816315,40.428471 
	C351.862793,36.745300 346.778259,34.282799 340.223053,38.127766 
	C338.097656,45.600185 344.875671,49.794209 349.386383,55.736008 
	C342.488770,57.324024 338.006348,54.326580 333.685547,50.996761 
	C331.978485,49.681202 330.681366,47.777386 328.877930,46.655006 
	C325.330872,44.447491 321.832214,44.555271 318.355408,48.032864 
	C322.683624,50.826878 328.972046,50.828144 329.772919,57.622074 
	C321.723511,57.747543 314.278198,51.374111 304.834686,56.495918 
	C312.217010,58.689842 316.340942,64.284012 323.940979,65.305824 
	C319.912354,68.722229 316.165985,68.531509 312.522522,67.968384 
	C307.520844,67.195358 302.885223,65.295692 298.915558,62.076382 
	C296.787628,60.350674 294.430328,59.704926 291.921692,60.554905 
	C288.391327,61.751091 285.423645,63.504551 287.440948,68.135109 
	C287.892059,69.170547 288.390533,70.302788 287.517487,71.772606 
	C285.007660,72.956512 283.015564,71.281204 280.987305,69.942848 
	C279.601196,69.028229 278.792419,66.517769 276.504456,68.226097 
	C274.196014,69.949730 277.478271,71.415573 276.759186,73.392532 
	C273.772827,73.678032 271.968506,72.272804 270.898956,69.445061 
	C269.495270,65.734001 272.639313,65.016075 274.809540,63.256538 
	C274.991760,63.001755 274.966614,63.015331 274.966614,63.015331 
z"/>
<path fill="#000000" opacity="1.000000" stroke="none" 
	d="
M137.953445,106.921890 
	C139.208755,105.178352 143.532257,105.029938 140.579147,101.052551 
	C139.549683,99.666016 142.365555,97.773071 142.892410,98.317207 
	C145.392822,100.899536 146.913300,98.685455 148.734329,97.660118 
	C150.234787,96.815285 151.759659,96.773621 152.641907,98.355141 
	C153.538315,99.962036 152.480972,101.419243 151.172424,102.114182 
	C137.693756,109.272423 130.097458,122.047035 121.289642,133.577301 
	C114.799995,142.072861 106.328339,147.087906 96.298332,149.818069 
	C92.515953,150.847610 88.783737,150.451324 85.742210,147.665283 
	C86.113144,144.925598 89.215202,146.437424 90.065269,144.190536 
	C89.011261,139.971451 83.393219,137.534241 84.026787,132.042923 
	C85.975067,132.357559 86.703850,133.811386 87.763115,134.791656 
	C95.476341,141.929779 101.129677,142.469421 108.717255,137.312531 
	C112.058922,135.041367 115.300903,132.842438 117.867012,129.263977 
	C118.052711,128.982513 118.017365,129.009293 118.285309,128.844238 
	C122.964348,123.621284 127.375450,118.563408 131.486389,113.849693 
	C130.782166,111.453430 128.161942,111.565025 128.328384,109.302711 
	C131.411346,105.060272 132.125977,110.879280 134.559341,110.868347 
	C135.615402,109.640427 136.784424,108.281158 137.953445,106.921890 
z"/>
<path fill="#000000" opacity="1.000000" stroke="none" 
	d="
M240.046967,32.598843 
	C241.270691,33.125629 242.469162,33.651329 242.061005,31.833616 
	C241.421173,28.984186 242.817307,27.188986 244.480759,25.246021 
	C246.818481,26.726814 246.581482,28.975229 247.222183,30.747610 
	C250.052979,38.578472 254.786179,41.991398 263.148560,41.603096 
	C270.680115,41.253376 277.999084,39.759609 284.883392,36.535488 
	C286.042694,35.992546 287.587616,35.716496 287.404968,33.914169 
	C287.247314,32.358746 286.121460,30.294256 288.863861,30.112223 
	C291.830139,29.915323 289.983154,33.108166 291.270569,34.154427 
	C307.670349,32.106983 307.670349,32.106983 309.726685,36.214104 
	C309.001831,37.500317 307.707764,37.462425 306.659576,37.126842 
	C299.782410,34.925095 293.419189,36.910385 287.321320,39.719959 
	C275.805389,45.025898 263.822021,46.782177 251.301941,45.308434 
	C245.654877,44.643719 241.132523,42.159954 238.754089,36.785439 
	C238.141678,35.401566 236.733231,33.258583 240.046967,32.598843 
z"/>
<path fill="#000000" opacity="1.000000" stroke="none" 
	d="
M65.257004,204.306793 
	C60.982857,205.698151 58.746353,209.058624 55.913498,212.482361 
	C53.941063,208.426147 54.142841,205.506195 57.539738,203.371857 
	C64.702515,198.871292 70.530876,193.273560 74.634926,185.677719 
	C77.178047,180.970871 80.990532,177.011505 87.133331,176.441071 
	C87.645905,179.565979 85.789787,180.787628 84.591919,182.273666 
	C82.023361,185.460068 79.944832,188.801788 80.304199,193.112823 
	C80.535881,195.891968 78.955940,197.366196 76.702827,198.489578 
	C72.982071,200.344681 69.298141,202.273651 65.257004,204.306793 
z"/>
<path fill="#000000" opacity="1.000000" stroke="none" 
	d="
M472.147278,517.056641 
	C468.845093,520.787170 468.875885,525.659485 466.217499,530.090210 
	C462.791931,526.015930 462.032867,521.533264 462.903137,517.272522 
	C464.824554,507.865295 469.622375,499.473572 472.717041,489.924927 
	C477.948517,495.962097 477.413940,509.221985 472.147278,517.056641 
z"/>
<path fill="#000000" opacity="1.000000" stroke="none" 
	d="
M317.392456,618.463196 
	C314.346985,621.285522 310.963562,622.739075 307.314362,623.150635 
	C299.965698,623.979492 292.528748,622.265686 285.093231,623.882019 
	C293.719116,610.313965 308.677643,614.928040 320.887421,610.428833 
	C321.535004,614.254272 319.456543,616.176025 317.392456,618.463196 
z"/>
<path fill="#000000" opacity="1.000000" stroke="none" 
	d="
M213.876709,619.070496 
	C208.878555,618.966614 204.578262,617.777710 200.651917,615.477356 
	C195.759766,612.611206 190.409531,611.007385 183.881760,609.706970 
	C188.319519,606.315735 192.458572,606.431458 196.434082,606.853638 
	C206.648270,607.938354 215.921127,612.730103 226.928848,614.158813 
	C222.804245,618.118530 218.412933,618.205017 213.876709,619.070496 
z"/>
<path fill="#000000" opacity="1.000000" stroke="none" 
	d="
M275.001709,62.992287 
	C272.915039,63.036194 269.561890,64.104431 269.199066,61.878277 
	C268.672974,58.649921 263.610596,55.557899 268.243622,51.866562 
	C273.900208,59.186779 273.894012,59.171669 283.217377,55.343323 
	C292.376434,51.582436 300.502563,46.108635 308.402893,40.252037 
	C310.716675,38.536804 313.267120,36.717087 312.546631,33.451759 
	C311.754333,29.860823 308.560028,29.442911 305.459595,29.217087 
	C304.684052,29.160601 303.925385,28.872341 302.928680,28.635990 
	C306.285675,25.940500 312.901917,26.893156 315.768127,30.309242 
	C318.727509,33.836369 317.142609,36.927673 314.346832,39.463909 
	C306.503326,46.579281 296.947083,51.047913 287.826569,56.165073 
	C283.778137,58.436489 279.551178,60.389641 275.185913,62.751289 
	C274.966614,63.015331 274.991760,63.001755 275.001709,62.992287 
z"/>
<path fill="#000000" opacity="1.000000" stroke="none" 
	d="
M484.414062,440.859558 
	C482.772400,434.168213 484.808960,428.077698 485.003601,421.802368 
	C494.652679,423.398621 498.463470,442.551483 493.187286,450.682800 
	C490.308136,447.494324 487.470123,444.351410 484.414062,440.859558 
z"/>
<path fill="#000000" opacity="1.000000" stroke="none" 
	d="
M479.165222,480.258057 
	C478.058105,472.489777 479.647247,465.549164 482.042053,458.474945 
	C488.817810,463.738129 490.022003,478.853210 484.909790,491.954224 
	C481.283173,488.895691 480.897247,484.460724 479.165222,480.258057 
z"/>
<path fill="#000000" opacity="1.000000" stroke="none" 
	d="
M494.439636,425.228210 
	C492.824127,420.070099 489.432617,416.275665 487.226196,411.838989 
	C485.978973,409.331146 484.560333,406.874084 484.614349,403.910278 
	C484.652893,401.796082 484.990570,399.890869 487.297729,399.119843 
	C489.536957,398.371460 491.180328,399.535553 492.500458,401.109375 
	C494.365021,403.332336 495.052979,406.082306 495.559235,408.873138 
	C496.677979,415.040283 497.594025,421.220398 496.974182,427.477356 
	C494.998779,427.966888 494.969238,426.551941 494.439636,425.228210 
z"/>
<path fill="#000000" opacity="1.000000" stroke="none" 
	d="
M180.277771,288.423401 
	C177.995438,289.452972 175.982071,289.169495 173.993347,289.160156 
	C171.549759,289.148651 170.000610,288.741669 170.257385,285.452576 
	C170.553879,281.654816 168.424026,278.488312 165.859024,275.712219 
	C164.765182,274.528381 163.114365,273.763550 162.735245,271.550659 
	C167.094803,269.652405 171.228989,270.546906 174.601898,273.367706 
	C179.076965,277.110291 181.863083,281.917969 180.277771,288.423401 
z"/>
<path fill="#000000" opacity="1.000000" stroke="none" 
	d="
M117.046494,452.303314 
	C118.728569,451.258636 120.106285,450.404541 121.813614,449.346100 
	C123.168907,452.391968 122.007393,454.457672 120.402077,456.382965 
	C117.067566,460.382080 112.591499,462.528931 107.670670,463.698395 
	C104.248062,464.511810 100.812462,465.074341 98.919281,468.454407 
	C96.130074,466.817841 96.796219,464.877197 97.561874,463.024200 
	C99.604942,458.079926 103.718254,455.693878 108.671005,454.840088 
	C111.488930,454.354279 114.180122,453.723541 117.046494,452.303314 
z"/>
<path fill="#000000" opacity="1.000000" stroke="none" 
	d="
M162.157913,588.607544 
	C168.450729,590.039917 173.127350,593.830261 178.729279,596.277954 
	C170.414673,602.256409 156.713242,597.792786 148.684647,586.654297 
	C153.372330,586.071838 157.553635,587.408813 162.157913,588.607544 
z"/>
<path fill="#000000" opacity="1.000000" stroke="none" 
	d="
M344.532776,606.461243 
	C350.301025,603.909241 355.716766,601.502319 361.164520,599.081299 
	C362.687988,606.349243 355.655029,610.676392 332.893250,616.679016 
	C332.970856,611.620789 334.577118,610.187317 344.532776,606.461243 
z"/>
<path fill="#000000" opacity="1.000000" stroke="none" 
	d="
M183.857239,465.517090 
	C187.334824,464.238586 190.444748,463.079681 194.177628,464.194763 
	C194.681717,468.632599 192.867554,472.562561 191.488205,476.508179 
	C190.836380,478.372742 188.922653,477.596924 187.531326,477.289795 
	C183.956512,476.500702 180.389786,475.860748 175.823181,477.147461 
	C176.081177,471.123383 178.912933,467.854126 183.857239,465.517090 
z"/>
<path fill="#000000" opacity="1.000000" stroke="none" 
	d="
M125.071281,311.829895 
	C119.296936,310.191833 114.999908,312.456879 111.292336,316.345551 
	C108.779953,310.939545 109.697533,306.980286 113.637001,303.869385 
	C115.518120,302.383881 117.712730,301.459320 119.994041,301.115875 
	C122.483459,300.741150 126.110191,298.782043 127.316055,301.528442 
	C128.730209,304.749207 128.856796,308.928223 125.071281,311.829895 
z"/>
<path fill="#000000" opacity="1.000000" stroke="none" 
	d="
M244.612854,550.828674 
	C245.478546,546.429932 248.828217,547.927795 251.152740,547.777893 
	C253.655792,547.616516 257.092529,545.447571 258.577087,548.182678 
	C260.224854,551.218628 257.416748,554.116272 255.659042,556.645325 
	C252.172913,561.661011 246.565735,563.787476 240.500504,562.384644 
	C243.257065,559.073120 245.531021,555.653198 244.612854,550.828674 
z"/>
<path fill="#000000" opacity="1.000000" stroke="none" 
	d="
M262.789307,622.172424 
	C255.483170,623.144775 248.598892,624.200867 241.627579,623.618591 
	C239.743774,623.461304 237.524780,623.694214 236.407028,621.485046 
	C240.003082,616.156372 260.608002,615.087952 269.502014,619.896362 
	C267.824371,622.040405 265.189178,621.226196 262.789307,622.172424 
z"/>
<path fill="#000000" opacity="1.000000" stroke="none" 
	d="
M444.047363,538.098572 
	C445.381042,536.239319 446.578644,534.776550 447.956970,533.025513 
	C449.522278,531.574402 450.892395,530.393250 452.307312,529.268494 
	C452.516968,529.101746 452.937988,529.200928 453.594604,529.152588 
	C456.212891,532.194824 456.028320,535.841370 454.296478,539.043091 
	C452.927582,541.573792 450.237518,543.309631 448.652557,545.898560 
	C447.118713,548.403992 446.376617,551.399048 443.689636,553.963684 
	C440.864319,548.484375 441.015503,543.504272 444.047363,538.098572 
z"/>
<path fill="#000000" opacity="1.000000" stroke="none" 
	d="
M150.370056,286.594208 
	C149.628677,287.166992 149.060425,287.506226 148.180359,287.956238 
	C146.156906,288.607819 144.445267,289.148621 142.340530,289.813629 
	C140.316650,284.069366 134.538788,283.228363 129.966675,280.635712 
	C135.931976,274.836060 146.006927,276.094757 153.264999,283.104340 
	C153.284683,284.951050 151.340897,285.183929 150.370056,286.594208 
z"/>
<path fill="#000000" opacity="1.000000" stroke="none" 
	d="
M427.275635,565.301392 
	C421.325806,569.968323 415.655548,574.407654 409.762390,579.021484 
	C409.228302,573.726135 424.482788,556.869324 433.044434,552.833984 
	C434.422760,558.446960 431.377380,561.928589 427.275635,565.301392 
z"/>
<path fill="#000000" opacity="1.000000" stroke="none" 
	d="
M69.991882,494.997437 
	C70.282257,497.087921 69.719231,498.307037 67.299217,497.580719 
	C65.179565,496.944519 63.381145,495.678345 61.896328,494.148315 
	C57.312004,489.424225 53.610229,483.913483 48.322182,479.635223 
	C53.145618,476.882019 56.663509,477.364166 59.484329,481.054443 
	C62.898125,485.520508 66.144180,490.114777 69.739426,494.842712 
	C70.016029,495.031921 70.001465,495.007355 69.991882,494.997437 
z"/>
<path fill="#000000" opacity="1.000000" stroke="none" 
	d="
M385.164856,595.210815 
	C382.085449,596.766846 379.654205,598.827087 376.493408,599.618896 
	C376.725128,593.872925 384.497559,587.595886 400.991547,579.614929 
	C401.840942,584.941040 400.027771,586.746155 385.164856,595.210815 
z"/>
<path fill="#000000" opacity="1.000000" stroke="none" 
	d="
M270.993622,211.038254 
	C272.358124,209.026413 272.343414,206.238419 274.410767,204.582642 
	C281.745026,208.587997 280.942047,211.010010 277.617096,224.256943 
	C273.360809,224.214279 270.902832,222.272369 270.747040,217.851074 
	C270.677185,215.867554 270.904358,213.873596 271.013184,211.432236 
	C271.029602,210.980103 271.002777,211.017197 270.993622,211.038254 
z"/>
<path fill="#000000" opacity="1.000000" stroke="none" 
	d="
M95.362358,536.826050 
	C104.443855,538.488708 109.130692,546.302246 116.674812,549.998047 
	C112.542007,553.280579 108.327271,552.561096 102.804611,548.117065 
	C98.802963,544.896973 96.351044,540.136475 91.758354,537.592712 
	C92.737900,535.835022 93.977760,536.839539 95.362358,536.826050 
z"/>
<path fill="#000000" opacity="1.000000" stroke="none" 
	d="
M360.155151,131.378281 
	C363.379242,128.983215 366.304016,126.810463 369.276154,124.704521 
	C370.252167,124.012962 371.372284,123.576180 372.415466,124.644890 
	C373.272308,125.522675 372.921326,126.530312 372.465729,127.404533 
	C369.226166,133.620270 364.870209,138.863037 358.361969,143.678833 
	C357.524475,138.867950 356.175720,135.034454 360.155151,131.378281 
z"/>
<path fill="#000000" opacity="1.000000" stroke="none" 
	d="
M185.689667,188.856140 
	C189.123871,190.465332 192.534714,191.452103 194.542114,194.934692 
	C186.182266,199.391327 179.471039,195.805618 172.184723,191.272202 
	C176.142456,186.429520 180.696167,187.454544 185.689667,188.856140 
z"/>
<path fill="#000000" opacity="1.000000" stroke="none" 
	d="
M286.072144,460.489807 
	C282.213531,462.344971 278.641510,463.165649 273.765564,461.149017 
	C278.385315,457.903351 281.822388,454.452820 284.915802,450.540161 
	C286.844696,448.100372 291.074524,450.576721 294.867371,451.326019 
	C293.144409,455.769836 289.837677,458.087646 286.072144,460.489807 
z"/>
<path fill="#000000" opacity="1.000000" stroke="none" 
	d="
M157.741592,177.204590 
	C161.190521,177.915848 164.496841,177.516296 167.189743,179.534073 
	C163.828690,186.825653 153.223267,188.378525 148.554535,182.335281 
	C147.248642,180.644913 148.221497,179.494980 149.626450,178.702148 
	C151.997955,177.363892 154.606674,176.904892 157.741592,177.204590 
z"/>
<path fill="#000000" opacity="1.000000" stroke="none" 
	d="
M122.356483,561.627563 
	C132.002899,561.804749 136.928787,569.206360 143.429779,574.049316 
	C132.317795,576.660828 126.945465,566.964111 118.857483,563.065735 
	C119.586891,561.166809 120.924042,561.801880 122.356483,561.627563 
z"/>
<path fill="#000000" opacity="1.000000" stroke="none" 
	d="
M184.564804,497.636658 
	C186.905365,501.720917 186.004166,504.089996 181.711243,505.226288 
	C178.594131,506.051392 177.381653,509.048828 175.531357,511.325287 
	C171.583771,505.970612 174.589996,497.605103 181.862442,493.484802 
	C183.836533,493.966064 183.887604,495.799042 184.564804,497.636658 
z"/>
<path fill="#000000" opacity="1.000000" stroke="none" 
	d="
M100.473343,180.390274 
	C105.056740,176.776672 109.920532,175.154205 115.470695,175.179871 
	C114.134781,183.019501 105.523750,187.503998 96.926064,186.751343 
	C96.347572,183.820938 98.575378,182.373749 100.473343,180.390274 
z"/>
<path fill="#000000" opacity="1.000000" stroke="none" 
	d="
M91.148026,524.125244 
	C90.130516,527.190613 87.966583,526.461975 85.901398,525.672791 
	C83.356583,524.700256 81.416519,522.812195 79.632858,520.862122 
	C77.735268,518.787537 76.246094,516.334473 74.313446,514.298340 
	C72.544853,512.434998 70.422287,510.907654 68.363266,509.153473 
	C73.266899,506.696381 76.892494,507.846863 80.507202,513.180786 
	C83.216782,517.179016 85.650734,521.347046 90.542831,523.642578 
	C90.837944,523.753662 91.042732,524.003052 91.148026,524.125244 
z"/>
<path fill="#000000" opacity="1.000000" stroke="none" 
	d="
M198.714432,209.361511 
	C197.157257,207.688614 195.200150,206.756058 194.880676,204.548477 
	C200.587326,202.220505 208.675400,205.734955 213.260956,212.488022 
	C207.908112,216.197876 205.010803,215.612427 198.714432,209.361511 
z"/>
<path fill="#000000" opacity="1.000000" stroke="none" 
	d="
M141.529022,176.685516 
	C135.916565,181.974747 129.336899,181.323441 122.735909,181.214523 
	C124.660820,173.921799 137.083099,169.959457 142.209564,174.770355 
	C142.803024,175.327286 142.272247,175.970886 141.529022,176.685516 
z"/>
<path fill="#000000" opacity="1.000000" stroke="none" 
	d="
M351.836670,140.078918 
	C348.646973,147.294907 344.113129,153.065445 337.976379,158.073563 
	C335.068634,150.065521 343.821899,139.216187 351.836670,140.078918 
z"/>
<path fill="#000000" opacity="1.000000" stroke="none" 
	d="
M213.010208,456.981079 
	C211.709045,457.585144 210.394226,458.204803 208.752029,458.978760 
	C205.855194,453.290009 200.189529,452.866028 194.683014,451.655182 
	C199.967758,447.331787 207.690872,446.718109 212.597870,449.693481 
	C215.983643,451.746460 214.696396,453.984436 213.086349,456.690002 
	C212.965103,457.023743 212.996552,456.996704 213.010208,456.981079 
z"/>
<path fill="#000000" opacity="1.000000" stroke="none" 
	d="
M269.293976,124.650635 
	C269.049561,126.781807 270.084229,128.634842 268.848236,130.272186 
	C261.070160,127.470856 259.508789,118.612534 261.382721,110.177925 
	C267.416718,113.128311 269.495728,118.009293 269.293976,124.650635 
z"/>
<path fill="#000000" opacity="1.000000" stroke="none" 
	d="
M288.121338,198.653656 
	C287.275665,200.644699 287.600433,202.682251 285.934387,204.265732 
	C282.540192,203.048645 279.746826,200.218826 280.102020,197.244141 
	C280.694916,192.278946 284.610901,188.807404 288.839417,185.245041 
	C290.886902,190.176315 288.386292,194.168350 288.121338,198.653656 
z"/>
<path fill="#000000" opacity="1.000000" stroke="none" 
	d="
M397.557129,80.795624 
	C397.859894,79.165146 397.494568,77.630470 399.232635,77.163795 
	C404.620117,81.666374 404.011230,89.870628 397.255768,100.623535 
	C392.168060,93.859787 397.619965,87.527718 397.557129,80.795624 
z"/>
<path fill="#000000" opacity="1.000000" stroke="none" 
	d="
M319.285492,161.611725 
	C321.379395,156.524628 325.755432,155.513962 329.931763,153.806015 
	C331.074341,160.238907 325.548218,167.396317 318.824554,168.638977 
	C317.680115,166.366531 318.918793,164.184525 319.285492,161.611725 
z"/>
<path fill="#000000" opacity="1.000000" stroke="none" 
	d="
M216.928848,231.160904 
	C215.190765,228.779709 212.748718,227.254593 212.560822,224.294479 
	C219.202515,223.919525 226.811829,228.060745 229.337494,233.586273 
	C224.761246,235.466095 220.506027,236.412735 216.928848,231.160904 
z"/>
<path fill="#000000" opacity="1.000000" stroke="none" 
	d="
M256.451599,95.435760 
	C254.259827,92.106186 252.211212,89.098610 251.864090,85.334305 
	C258.604614,83.780960 264.721588,92.823471 262.976501,101.919609 
	C260.086243,100.488388 258.538666,97.927452 256.451599,95.435760 
z"/>
<path fill="#000000" opacity="1.000000" stroke="none" 
	d="
M262.173950,152.419815 
	C259.901154,146.840439 260.709106,141.711060 262.170593,136.487350 
	C267.252045,138.965393 269.144867,148.632492 266.197754,156.655350 
	C263.815033,156.467575 263.184296,154.514206 262.173950,152.419815 
z"/>
<path fill="#000000" opacity="1.000000" stroke="none" 
	d="
M22.168972,397.709473 
	C20.178205,392.711731 19.245695,387.863037 18.640921,382.948975 
	C18.489712,381.720306 18.034351,380.093536 19.889683,379.697693 
	C21.551283,379.343201 22.132042,380.704773 22.676046,381.946350 
	C24.671793,386.501373 25.998999,391.258545 26.928078,396.130798 
	C27.184608,397.476105 27.124632,398.902954 25.842421,399.684418 
	C24.035126,400.785889 23.190418,399.330872 22.168972,397.709473 
z"/>
<path fill="#000000" opacity="1.000000" stroke="none" 
	d="
M292.008728,280.981812 
	C288.586426,282.132538 285.337128,283.914154 281.638947,284.231659 
	C279.570251,284.409241 277.735809,283.827881 276.194641,282.377319 
	C280.449615,277.267029 290.268311,274.622253 295.608002,277.110260 
	C295.597900,279.204102 293.544189,279.438751 292.206146,280.781921 
	C291.955933,281.020111 291.992798,280.996704 292.008728,280.981812 
z"/>
<path fill="#000000" opacity="1.000000" stroke="none" 
	d="
M14.988863,360.451477 
	C14.668906,355.319885 14.273753,350.622131 15.147152,345.698395 
	C20.558996,348.914185 22.322577,361.897339 18.566416,367.920929 
	C15.177929,366.673065 16.036793,363.305969 14.988863,360.451477 
z"/>
<path fill="#000000" opacity="1.000000" stroke="none" 
	d="
M68.788040,453.085205 
	C69.758278,453.383667 70.297455,453.647247 71.115311,454.040405 
	C74.076279,457.921722 78.910667,455.697815 82.388466,457.817596 
	C76.988792,461.816986 73.651100,461.532715 59.406799,455.969238 
	C61.858189,452.869629 65.191750,453.193390 68.788040,453.085205 
z"/>
<path fill="#000000" opacity="1.000000" stroke="none" 
	d="
M400.899109,68.167206 
	C394.909027,64.618362 395.692749,59.300865 395.982819,52.723866 
	C402.398224,57.300587 403.798431,63.438213 406.363403,69.030128 
	C403.952728,70.277863 402.669678,68.925133 400.899109,68.167206 
z"/>
<path fill="#000000" opacity="1.000000" stroke="none" 
	d="
M261.937714,163.397461 
	C264.079315,170.203857 265.231476,176.730957 263.139832,183.999725 
	C259.829254,181.687729 259.281677,178.519745 258.886200,175.630310 
	C258.419830,172.223068 258.682251,168.705872 258.755920,165.239059 
	C258.794586,163.419510 259.175995,161.703613 261.937714,163.397461 
z"/>
<path fill="#000000" opacity="1.000000" stroke="none" 
	d="
M243.933411,255.278076 
	C237.051041,258.027191 232.052597,255.474762 228.534531,247.721115 
	C234.094818,245.653839 236.693176,246.877197 243.933411,255.278076 
z"/>
<path fill="#000000" opacity="1.000000" stroke="none" 
	d="
M224.908478,55.538445 
	C230.819199,53.397224 234.216019,57.026787 237.997467,59.929684 
	C234.536987,63.843842 224.253326,62.619747 222.428772,58.258377 
	C221.630127,56.349281 223.431183,56.209484 224.908478,55.538445 
z"/>
<path fill="#000000" opacity="1.000000" stroke="none" 
	d="
M49.135410,461.674438 
	C50.005810,462.810364 51.138004,463.522552 50.161983,465.421997 
	C40.572685,463.181671 42.877743,451.632416 35.027588,447.538269 
	C39.693050,445.300079 41.314903,447.934204 43.229122,450.065033 
	C46.174873,453.344208 45.750736,458.271301 49.135410,461.674438 
z"/>
<path fill="#000000" opacity="1.000000" stroke="none" 
	d="
M298.521423,183.542603 
	C295.616211,179.917023 295.860077,177.067368 299.596130,174.570190 
	C302.013062,172.954681 303.822083,170.443527 306.822418,169.346497 
	C306.782227,175.847900 302.905548,182.676849 298.521423,183.542603 
z"/>
<path fill="#000000" opacity="1.000000" stroke="none" 
	d="
M385.858337,109.526230 
	C386.838043,109.000557 387.553528,109.214394 387.503357,110.015831 
	C387.168640,115.360069 385.441803,120.185074 382.277954,124.588745 
	C376.936218,120.335220 376.777161,118.475113 381.032898,114.227737 
	C382.553467,112.710182 384.094116,111.212708 385.858337,109.526230 
z"/>
<path fill="#000000" opacity="1.000000" stroke="none" 
	d="
M256.573334,189.365356 
	C260.170410,189.116608 260.801544,191.743530 261.065186,194.082214 
	C261.443939,197.441467 261.475525,200.907440 259.642059,204.076141 
	C254.020386,200.509338 253.434021,197.796448 256.573334,189.365356 
z"/>
<path fill="#000000" opacity="1.000000" stroke="none" 
	d="
M28.054649,407.940460 
	C30.739231,413.405731 34.678886,417.789032 36.814846,423.453674 
	C31.333796,423.076935 25.698841,415.394287 24.115110,406.814758 
	C25.711454,405.444275 26.797558,406.480560 28.054649,407.940460 
z"/>
<path fill="#000000" opacity="1.000000" stroke="none" 
	d="
M40.399174,431.861267 
	C44.271870,435.631256 47.089439,439.923431 51.928524,443.133820 
	C46.261738,444.137573 37.435318,438.634857 36.630554,434.285339 
	C36.086498,431.344849 38.190979,431.567657 40.399174,431.861267 
z"/>
<path fill="#000000" opacity="1.000000" stroke="none" 
	d="
M258.235291,215.426727 
	C258.469391,220.492355 260.188080,225.133453 258.761963,229.991852 
	C254.202347,226.744766 252.820328,218.230988 255.540588,211.219986 
	C257.568512,211.700943 257.560394,213.584137 258.235291,215.426727 
z"/>
<path fill="#000000" opacity="1.000000" stroke="none" 
	d="
M381.770233,33.500919 
	C380.320068,31.482086 381.298004,30.882465 382.937836,30.775169 
	C386.428009,30.546803 388.882690,32.452000 390.914886,34.957947 
	C392.444214,36.843788 393.765961,38.897961 395.176697,40.879452 
	C392.277924,41.476608 392.277924,41.476608 381.770233,33.500919 
z"/>
<path fill="#000000" opacity="1.000000" stroke="none" 
	d="
M468.977173,62.173943 
	C466.899994,60.760700 465.214996,59.392822 463.349579,58.346752 
	C460.735748,56.881008 459.920532,54.944477 461.510864,51.091011 
	C466.098602,55.219860 471.205902,58.098499 475.076721,62.783455 
	C472.422913,65.130516 470.969788,63.014729 468.977173,62.173943 
z"/>
<path fill="#000000" opacity="1.000000" stroke="none" 
	d="
M216.433075,51.937798 
	C211.720825,54.116123 211.720825,54.116123 201.102036,49.578568 
	C202.498215,47.645561 204.450058,47.614986 206.310837,47.789413 
	C209.761108,48.112839 212.888260,49.959759 216.436356,50.036537 
	C217.121140,50.051353 216.998657,51.061966 216.433075,51.937798 
z"/>
<path fill="#000000" opacity="1.000000" stroke="none" 
	d="
M248.171036,70.787216 
	C249.896423,72.306259 251.360153,73.583389 252.873962,74.904221 
	C248.721588,77.856590 243.400986,74.584442 240.859131,67.643677 
	C244.217667,66.293282 245.821106,69.056274 248.171036,70.787216 
z"/>
<path fill="#000000" opacity="1.000000" stroke="none" 
	d="
M263.714600,251.917053 
	C262.502228,248.739868 260.842834,246.077713 260.344940,242.226959 
	C264.716644,244.798935 266.446960,248.344711 268.069702,251.988297 
	C266.557434,253.834991 265.234375,253.877930 263.714600,251.917053 
z"/>
<path fill="#000000" opacity="1.000000" stroke="none" 
	d="
M222.147614,238.022858 
	C227.088837,235.683609 228.678574,238.572556 229.907028,242.586212 
	C225.418610,244.150467 222.986465,242.630814 222.147614,238.022858 
z"/>
<path fill="#000000" opacity="1.000000" stroke="none" 
	d="
M263.002136,274.996094 
	C260.257019,273.809509 257.492554,272.633575 253.918610,271.113281 
	C258.016052,268.877533 261.169067,269.838684 264.001923,271.121368 
	C266.799957,272.388306 264.507507,273.577515 263.190491,274.828308 
	C262.942535,275.025208 262.982849,275.006683 263.002136,274.996094 
z"/>
<path fill="#000000" opacity="1.000000" stroke="none" 
	d="
M129.558350,131.972336 
	C132.141830,131.691116 134.442276,131.325287 136.918671,132.234070 
	C136.447250,134.458176 135.894791,136.926422 133.288025,136.699799 
	C131.126678,136.511887 128.790115,135.259323 129.558350,131.972336 
z"/>
<path fill="#000000" opacity="1.000000" stroke="none" 
	d="
M53.189484,285.126953 
	C55.194134,284.400879 56.883419,283.998169 57.049648,286.546936 
	C57.182014,288.576447 55.579048,288.914276 54.062485,288.828827 
	C52.528004,288.742371 50.798790,288.858337 49.797554,287.225708 
	C50.130219,285.401917 51.846508,285.886566 53.189484,285.126953 
z"/>
<path fill="#000000" opacity="1.000000" stroke="none" 
	d="
M134.087646,127.301117 
	C136.284927,123.214241 138.414810,126.828499 140.908203,126.791512 
	C138.503952,130.791245 138.503952,130.791245 134.087646,127.301117 
z"/>
<path fill="#000000" opacity="1.000000" stroke="none" 
	d="
M53.419659,292.228210 
	C56.707432,290.263245 58.880707,290.064331 58.681831,294.678711 
	C56.406101,295.585388 54.178669,295.917725 52.275570,294.278564 
	C51.474468,293.588531 52.546741,292.912689 53.419659,292.228210 
z"/>
<path fill="#000000" opacity="1.000000" stroke="none" 
	d="
M297.833893,42.112282 
	C299.394501,43.221775 299.969849,44.217342 298.342499,45.375278 
	C297.042511,46.300251 295.851471,46.257694 294.976990,44.825081 
	C294.204834,43.560177 293.483124,42.246311 293.641388,40.565598 
	C295.374542,39.851749 296.221497,41.650787 297.833893,42.112282 
z"/>
<path fill="#000000" opacity="1.000000" stroke="none" 
	d="
M128.321609,139.060822 
	C130.204391,139.520676 132.919571,138.743713 132.073700,141.842041 
	C131.628174,143.473907 129.963455,143.536758 128.776108,142.769409 
	C127.502571,141.946350 124.881241,140.995346 128.321609,139.060822 
z"/>
<path fill="#000000" opacity="1.000000" stroke="none" 
	d="
M264.848633,31.770327 
	C263.995911,33.286057 263.305115,34.521412 262.564453,35.845963 
	C260.098267,34.160793 260.453430,31.992464 261.057312,29.912796 
	C261.382751,28.792105 262.585571,28.742163 263.593933,28.923187 
	C265.050659,29.184700 265.472870,30.117966 264.848633,31.770327 
z"/>
<path fill="#000000" opacity="1.000000" stroke="none" 
	d="
M277.319794,50.825256 
	C278.495056,52.070953 280.010956,53.010536 278.719452,54.663486 
	C278.109100,55.444683 277.013702,55.646992 276.050079,55.350250 
	C274.390625,54.839241 274.652496,53.357315 274.706024,52.111954 
	C274.771484,50.587795 275.258362,49.468121 277.319794,50.825256 
z"/>
<path fill="#000000" opacity="1.000000" stroke="none" 
	d="
M142.377060,120.024185 
	C143.896683,122.168854 142.945831,123.625252 141.059982,123.607048 
	C139.008209,123.587242 137.613464,122.096497 137.825851,119.703362 
	C139.362411,118.639023 140.700317,119.765862 142.377060,120.024185 
z"/>
<path fill="#000000" opacity="1.000000" stroke="none" 
	d="
M51.996872,279.113281 
	C54.073162,278.103638 55.166218,278.601990 55.247932,280.622986 
	C55.315174,282.285919 53.976917,282.285553 52.845657,282.283020 
	C51.579994,282.280182 50.223064,282.564331 49.131260,281.542786 
	C48.887405,279.533203 50.756508,279.921143 51.996872,279.113281 
z"/>
<path fill="#000000" opacity="1.000000" stroke="none" 
	d="
M119.480576,121.415703 
	C117.733810,120.379059 116.212273,119.478989 117.458694,117.458710 
	C117.979591,116.614403 118.832634,115.855202 119.885086,116.210777 
	C121.639450,116.803513 122.242149,118.575890 122.467529,120.063248 
	C122.758797,121.985497 121.202560,121.907990 119.480576,121.415703 
z"/>
</svg>