<svg version="1.1" id="Layer_1" xmlns="http://www.w3.org/2000/svg" xmlns:xlink="http://www.w3.org/1999/xlink" x="0px" y="0px"
	 width="100%" height="100%" viewBox="0 0 1024 1024" enable-background="new 0 0 1024 1024" xml:space="preserve">
<path fill="#000000" opacity="1.000000" stroke="none" 
	d="
M401.033325,753.034302 
	C372.947876,737.068542 349.596649,715.269653 326.322449,692.333008 
	C324.341248,690.348267 322.838531,688.816772 321.335815,687.285339 
	C317.091980,680.778442 312.848145,674.271484 308.179077,667.254395 
	C307.427277,666.411499 307.100739,666.078796 306.774200,665.746033 
	C302.102600,656.937683 297.382202,648.154785 292.780579,639.310059 
	C290.569336,635.059875 288.461060,630.737305 287.468506,625.210693 
	C292.432648,625.341248 296.324097,626.801025 299.755951,629.429688 
	C299.452637,632.684570 296.191986,632.064575 294.994019,634.035461 
	C296.839325,636.848999 300.199341,636.805542 302.702911,638.233826 
	C306.042786,640.139282 307.737579,641.919861 303.181335,644.350342 
	C305.897919,648.749023 315.968201,646.320862 312.901825,655.354065 
	C315.046417,658.350342 321.936554,657.775513 319.231384,664.431824 
	C324.780365,665.993469 329.247314,668.562683 330.652802,674.847473 
	C331.152954,677.083984 334.449982,677.291382 336.167969,678.873108 
	C338.178772,680.724365 340.452026,682.457397 337.181152,685.380310 
	C340.926575,687.244263 345.650940,687.536804 346.913025,692.226135 
	C346.435944,694.158997 344.518738,694.120972 343.389038,695.252991 
	C346.812012,699.070007 355.437958,696.224060 355.882660,704.738159 
	C357.747894,705.117249 360.536316,705.414062 363.136627,706.277466 
	C366.803528,707.494812 366.013306,710.472229 364.894287,713.455505 
	C371.587616,713.978821 377.842224,714.692322 379.749481,722.106384 
	C388.412994,721.527527 388.901184,721.798340 391.544312,728.541626 
	C393.892303,729.420959 396.378174,728.505798 398.827057,728.678101 
	C402.487579,728.935547 402.294067,731.471313 401.975372,734.164429 
	C406.542084,734.097961 411.105469,733.013794 413.901154,737.702209 
	C414.132782,738.090698 415.450226,737.846069 416.263916,737.870850 
	C421.511292,738.030701 421.723663,738.200378 422.735718,743.130859 
	C426.958862,742.730713 431.318115,741.407227 434.731964,744.413452 
	C436.135590,746.645813 433.129547,746.910095 433.619934,748.714050 
	C438.194397,748.453430 443.216492,743.559204 447.123322,750.133423 
	C451.928162,747.773621 456.699097,745.549561 460.072815,752.210022 
	C464.033997,749.868408 467.799866,746.633667 472.146088,751.130249 
	C472.829071,751.836792 474.041168,750.888489 474.827576,750.305908 
	C479.269897,747.015503 483.354919,746.436584 486.585297,752.143188 
	C490.673309,749.162415 494.171295,743.759766 499.123230,749.840332 
	C503.939178,748.945129 507.330841,740.729187 513.275391,747.742126 
	C514.907104,746.518860 516.617004,745.223389 518.342224,743.948608 
	C519.423828,743.149414 521.005066,741.880493 521.899841,742.567932 
	C526.053833,745.759216 528.388489,742.053772 531.270386,740.448792 
	C533.341919,739.295166 535.312012,738.013428 537.702576,739.792725 
	C539.674683,741.260498 540.680298,739.378418 541.905457,738.409302 
	C544.394897,736.440002 546.181274,733.165710 550.415649,734.909363 
	C551.813110,735.484863 552.704834,733.283020 553.814026,732.345154 
	C555.869934,730.606689 557.754150,728.433167 560.557312,730.854126 
	C565.645996,722.515625 565.645996,722.515625 571.490601,724.992310 
	C573.850952,721.784424 572.957031,715.558533 579.920898,715.450134 
	C581.909790,711.788940 582.779541,706.125549 589.281921,705.573120 
	C590.411072,705.477295 590.470398,703.726135 590.692078,702.603821 
	C591.421692,698.909180 593.042480,696.071838 597.386292,695.849976 
	C598.292725,691.257629 596.058838,685.453491 602.547180,683.675171 
	C601.552551,670.917480 602.228333,669.447266 608.558716,670.508118 
	C609.404968,668.517090 607.518433,667.559326 606.852417,666.194641 
	C605.183594,662.775208 603.802612,659.428467 606.722107,655.978577 
	C608.501160,653.876343 606.711426,651.820801 606.521545,649.787231 
	C605.852478,642.621643 606.566833,641.335388 613.082458,639.903015 
	C611.066528,638.260315 608.991150,636.942505 607.399780,635.186035 
	C604.947144,632.479126 605.127563,629.851562 608.376465,627.648315 
	C612.576538,624.800049 616.604675,622.721863 621.378662,626.825684 
	C623.366272,628.534302 626.077942,629.280396 629.581970,628.499084 
	C626.244934,627.271057 623.397522,626.405212 621.053101,624.462708 
	C618.611694,622.439758 618.628784,620.871826 621.243164,618.998779 
	C625.748108,615.771301 630.506104,613.292236 636.505859,613.531311 
	C635.474243,611.148132 633.207092,613.045715 632.476685,610.809753 
	C633.887573,607.777466 637.890564,605.247559 636.455261,600.064209 
	C632.302246,605.808228 628.598328,611.342957 623.464294,615.581177 
	C615.835938,621.878357 606.956970,626.188721 598.378113,630.945923 
	C588.958435,636.169373 584.767395,645.970886 586.529846,656.405151 
	C587.724487,663.477722 589.899414,670.786865 586.880310,678.034607 
	C586.321167,679.377014 587.000427,680.649719 587.152771,681.953552 
	C587.754456,687.102539 587.188965,691.969360 583.463684,695.960999 
	C581.902954,697.633240 580.211548,699.189819 577.472656,698.878540 
	C577.461487,695.919800 579.565247,694.151672 580.275269,691.813599 
	C581.792542,686.817505 580.033020,685.327942 575.262817,683.903503 
	C570.990723,682.627686 568.390442,684.509338 565.193298,686.014709 
	C557.822266,689.485291 549.850342,690.510010 541.875977,691.001648 
	C525.702148,691.999023 509.582367,690.858948 493.532928,688.819702 
	C490.759796,688.467346 487.976318,687.646362 485.376923,686.597412 
	C480.708008,684.713501 476.225525,683.053223 470.945190,684.380615 
	C466.588928,685.475891 462.655212,683.173828 458.753387,681.236694 
	C460.785004,687.186890 466.394623,685.958923 471.755066,687.411133 
	C464.683350,695.446716 470.388336,702.071655 473.982117,709.126465 
	C468.918762,711.719238 464.035522,711.593567 459.111755,710.914551 
	C457.346344,710.671082 456.677734,709.377258 456.702271,707.659180 
	C456.728424,705.827087 456.741302,703.993591 456.699493,702.162048 
	C456.332458,686.082703 445.981232,675.330872 429.909515,674.286926 
	C423.228851,673.853027 416.654510,674.411743 409.844818,676.926086 
	C408.189087,671.449768 408.229614,666.316467 407.910553,661.289185 
	C407.716431,658.230774 410.404816,658.639221 412.305695,658.853882 
	C420.428406,659.771118 428.410278,661.333984 436.039429,664.415833 
	C438.133087,665.261475 440.100189,666.691345 443.096344,666.248657 
	C441.317078,663.890930 439.050568,663.039917 436.770203,662.229065 
	C431.106964,660.215637 425.290924,658.839661 419.356384,657.875061 
	C413.051819,656.850281 413.065247,656.767761 413.479218,650.838806 
	C408.869446,654.960938 403.772583,649.545776 399.068024,652.462830 
	C398.961517,644.637329 405.118988,640.239929 413.666626,641.141174 
	C415.060425,642.100708 413.646545,644.168091 415.422546,645.207458 
	C417.848907,644.170227 417.473633,640.796082 420.010864,639.393921 
	C426.797394,642.938416 431.740173,649.233154 438.932343,652.619751 
	C435.529999,649.338989 432.082153,646.103455 428.747528,642.755188 
	C427.403076,641.405273 425.468079,640.013794 427.859955,637.218384 
	C428.920929,636.083557 429.613525,635.468323 430.306122,634.853088 
	C432.264526,633.965881 434.222961,633.078674 436.170197,632.196533 
	C438.277740,632.870911 438.583893,634.883545 439.455414,636.400696 
	C445.144684,646.304688 452.227753,655.096436 460.588318,662.850220 
	C463.403748,665.461304 466.844543,666.815125 470.453766,668.297729 
	C488.084625,675.540466 505.506927,669.457764 523.009155,668.359680 
	C529.794128,667.933960 536.053345,665.863831 542.050659,662.858643 
	C543.916016,661.924072 545.855469,661.851624 548.051819,661.867371 
	C548.804199,659.003357 549.549255,656.167114 550.205261,653.669922 
	C552.138245,652.391174 553.287415,654.382080 555.954346,653.856750 
	C530.958740,634.564880 531.296692,608.752686 536.325256,581.127747 
	C533.081238,582.614014 530.568665,583.270874 526.694946,583.158630 
	C530.850952,585.530701 528.656860,586.944702 527.197510,588.502075 
	C522.060120,593.984802 517.280151,599.742676 513.528931,606.293640 
	C511.197113,610.365784 509.296783,614.626160 508.353333,619.228821 
	C506.761810,626.992920 506.581940,627.248840 498.344727,628.969482 
	C497.983917,629.001099 498.023163,629.029846 498.023163,629.029846 
	C497.351715,628.542786 496.058044,627.987610 496.102783,627.578979 
	C496.704041,622.085327 492.199249,622.195312 488.975342,620.906555 
	C468.934601,612.894409 449.635010,603.595703 433.131866,589.306580 
	C425.489990,582.689941 418.807434,575.273865 414.436127,566.134888 
	C412.558289,562.208984 407.833649,561.493774 406.200592,557.465820 
	C406.723694,563.535156 404.273743,569.367737 405.630615,575.368042 
	C406.092926,577.412415 404.353394,577.775024 402.858795,578.117371 
	C399.180389,578.959961 390.561676,575.332397 388.592773,572.220642 
	C387.522308,570.528809 388.657593,569.362427 389.387512,568.136108 
	C392.072327,563.625305 393.665009,558.767822 394.286865,553.567078 
	C394.715118,549.985596 394.379944,546.382019 392.280060,543.517578 
	C386.265228,535.312866 379.876617,527.399109 371.584564,521.283447 
	C368.740601,519.185913 365.734589,517.237732 362.269012,516.629150 
	C359.143738,516.080200 357.327118,514.880737 357.684631,511.703186 
	C352.317139,510.469666 347.481720,510.654480 343.627441,514.798706 
	C340.874878,510.621613 342.003540,506.507812 346.304810,503.774567 
	C351.562103,500.433685 356.362640,500.632416 358.739777,504.412964 
	C359.034454,503.973816 359.422943,503.619690 359.536316,503.192535 
	C361.750214,494.851196 363.531860,494.135956 370.686157,499.474976 
	C377.147583,504.296967 382.571198,510.161316 386.488708,517.299011 
	C387.269073,518.720886 387.720154,520.391846 390.226318,521.728271 
	C387.364136,513.659302 382.411591,508.024811 377.536957,502.348175 
	C375.066162,499.470917 371.870148,497.613068 370.592987,493.255341 
	C369.254944,488.690002 364.264679,486.346100 359.208191,484.788940 
	C361.613892,481.234039 364.649506,480.852814 367.816162,481.214874 
	C371.865021,481.677795 375.494751,483.346588 378.796478,485.720337 
	C379.599640,486.297729 380.438538,487.478180 381.165680,487.407013 
	C387.976501,486.740662 388.282471,491.887268 389.378693,496.345093 
	C391.247375,503.943939 393.348083,511.476257 396.319244,518.724731 
	C397.225525,520.935669 397.899414,523.520081 401.103668,524.393433 
	C402.567810,521.150940 400.418793,518.915344 398.947845,516.822693 
	C395.238708,511.545837 392.932831,505.707245 391.291046,499.557617 
	C390.370239,496.108521 390.611176,493.153534 395.025146,492.578918 
	C393.558136,486.878357 392.108307,481.233368 386.951569,477.333221 
	C391.929474,475.040253 396.720917,476.278595 399.651306,480.501251 
	C403.455505,485.983063 405.612915,492.540955 405.964294,498.837128 
	C407.608765,528.302002 417.366791,553.342041 442.034821,571.253662 
	C452.142151,578.592651 461.774261,586.601685 473.648987,591.117981 
	C476.660156,592.263123 481.597931,590.898254 480.408722,598.445984 
	C483.352631,594.851013 485.503113,593.968994 488.573517,596.731018 
	C487.352570,591.201843 484.641418,587.554016 482.822540,583.531738 
	C479.842804,576.942322 477.461487,570.170593 477.876038,562.851379 
	C478.046051,559.849670 477.770264,555.885559 481.927643,555.884827 
	C483.205139,548.571228 477.365845,546.988281 472.769531,544.045227 
	C463.462189,538.085754 456.949188,529.356018 450.724243,520.464294 
	C436.051514,499.505737 424.834412,476.658447 413.546143,453.769165 
	C403.723236,433.851135 388.339447,419.714691 365.097992,417.244659 
	C356.596771,416.341187 347.820923,416.296417 339.591278,420.072876 
	C350.263824,417.749115 360.711914,418.572327 371.302734,421.016296 
	C388.474548,424.978912 399.024780,436.654144 407.987518,450.583191 
	C419.272217,468.120819 427.835846,487.136993 437.905518,505.332825 
	C447.252686,522.223022 458.391205,537.686340 474.143433,549.329529 
	C474.628601,549.688110 474.930420,550.294800 475.572418,551.108887 
	C471.578247,552.749939 467.799164,552.040161 464.098022,551.775940 
	C462.590149,551.668335 462.068420,550.230713 461.760498,548.867798 
	C460.377136,542.744446 456.347198,539.053772 450.620331,537.114563 
	C447.951477,536.210815 446.590973,534.978516 446.616913,531.828125 
	C446.667877,525.639099 443.045776,521.221252 438.363708,517.706604 
	C435.911346,515.865723 434.517761,513.938049 434.677155,510.664795 
	C434.930481,505.463654 431.582184,502.020966 427.840454,499.098419 
	C425.693268,497.421234 424.300812,495.678406 424.726135,492.826630 
	C424.846680,492.018280 424.972992,490.988037 424.595398,490.361755 
	C419.239899,481.478943 416.493561,471.162170 409.755493,463.078918 
	C408.452911,461.516327 406.952759,460.327942 406.901520,458.108215 
	C406.761139,452.031647 403.280151,448.307007 398.085907,445.881012 
	C396.358917,445.074463 394.830750,444.324158 394.826996,442.009857 
	C394.818970,437.052856 391.668945,434.874268 387.282379,434.263458 
	C382.743286,433.631348 379.042145,432.561981 376.249176,428.086792 
	C373.279694,423.328705 367.057190,422.736633 360.323395,425.713928 
	C357.153687,427.115387 354.834473,427.552795 351.744537,425.196259 
	C347.395203,421.879242 342.733978,423.211609 338.411957,428.613098 
	C336.429962,431.090118 334.584778,432.607819 331.113007,432.748383 
	C325.905823,432.959198 322.258087,436.050842 320.221344,440.897400 
	C321.511017,442.647827 323.611572,441.150757 325.390564,442.958862 
	C323.036957,446.811005 319.451996,449.084900 315.056915,450.093414 
	C309.525970,451.362610 305.715851,455.080750 302.115540,458.984741 
	C300.419861,460.823334 299.751678,463.327515 301.437317,465.889008 
	C304.912720,464.991333 307.300415,461.667908 311.737701,462.332153 
	C309.409180,467.736206 305.404358,472.297852 305.314728,478.810181 
	C309.517151,475.918762 311.991821,471.350159 317.250000,470.120270 
	C317.899933,473.843231 315.591248,476.042511 314.063446,478.425079 
	C312.540375,480.800171 310.449036,482.814362 308.958160,485.205780 
	C306.358612,489.375488 307.252075,491.963196 311.679474,493.981232 
	C312.797058,494.490631 313.651428,495.192078 313.967438,496.423645 
	C314.164520,498.602081 310.684479,498.300690 311.162598,500.775757 
	C312.866760,502.966583 316.016235,500.837219 317.900787,502.734955 
	C314.634674,508.002777 311.310333,507.815002 302.902039,501.780975 
	C300.493011,503.659729 298.096008,506.561401 294.311432,503.665497 
	C294.874817,500.533661 298.752991,500.266235 299.750092,497.046387 
	C297.330231,496.841644 294.626953,498.216248 292.418945,496.067230 
	C293.597809,493.628052 296.104980,493.501160 298.307861,492.293030 
	C295.722687,491.385529 292.750519,492.567902 290.774475,490.150085 
	C292.080322,487.660034 294.973785,488.459473 297.016632,486.894867 
	C297.329437,483.218903 295.379333,479.757019 295.201874,475.623688 
	C292.399506,475.979279 289.040558,477.170197 290.329895,471.136627 
	C285.284515,478.813110 285.264282,485.792908 287.663086,492.693909 
	C292.842468,507.594208 280.744263,520.800354 268.545746,522.767090 
	C267.773682,522.891602 266.964111,522.783264 266.095886,522.783264 
	C267.068634,519.407959 267.068634,519.407959 264.167114,514.401733 
	C265.337494,512.878784 266.933075,513.759277 268.291168,513.808533 
	C279.458984,514.213440 286.040497,507.564209 284.523682,496.470886 
	C283.927887,492.113434 284.389221,486.502258 278.177643,484.761475 
	C277.026825,484.438965 276.728241,482.883728 277.517029,481.754669 
	C278.971497,479.672516 280.236603,482.328156 281.812317,482.496521 
	C281.616547,478.374146 278.828156,479.394958 276.454376,478.753265 
	C276.087830,481.537933 275.768829,483.961487 275.427185,486.557007 
	C277.367493,487.568146 279.686035,487.875519 280.773743,489.873016 
	C279.298798,492.851227 276.884796,490.885468 274.899261,491.247955 
	C275.021759,493.732452 278.390930,493.171906 278.605652,495.396484 
	C276.824066,498.381805 272.537994,493.368652 271.112518,497.739075 
	C272.178711,500.135559 275.487122,500.173096 276.456085,502.866547 
	C272.166168,506.616394 268.754639,502.174164 265.112305,501.429749 
	C262.622192,500.920776 262.558075,497.790375 262.729279,495.415771 
	C262.981903,491.912018 263.536224,488.541962 266.151672,485.771454 
	C269.192993,482.549927 270.184875,478.604065 269.488220,474.197937 
	C269.257751,472.740356 269.094757,471.183197 269.353271,469.753357 
	C270.236633,464.867615 271.205994,460.585846 269.280945,455.111298 
	C266.928711,448.421967 271.080414,441.364044 276.594391,437.114777 
	C283.589905,431.723846 285.709412,424.458588 286.546936,416.702179 
	C287.651001,406.477051 290.492279,397.053253 296.891602,389.035645 
	C299.914703,385.248077 299.242432,380.483582 301.836578,375.265259 
	C303.595581,379.739746 304.499969,383.071716 303.168915,386.794678 
	C302.554138,388.514099 301.472076,390.258789 301.497437,391.978790 
	C301.574524,397.208496 301.513702,402.161530 296.456329,405.495361 
	C295.687225,406.002380 295.223145,407.606293 295.302277,408.650970 
	C295.577301,412.280273 295.907959,415.548645 292.394196,418.296448 
	C290.285339,419.945618 292.656708,421.777313 294.281219,424.180054 
	C294.639130,420.768585 296.364899,419.199005 298.497101,417.836395 
	C303.893616,414.387573 308.382812,410.159760 311.491425,404.331024 
	C313.774170,400.050781 316.966858,396.171051 322.634735,395.775635 
	C323.139069,398.438202 321.436096,399.385864 320.645355,400.776337 
	C319.660461,402.508331 317.756622,404.264008 317.817932,405.952545 
	C318.124115,414.383820 311.533417,416.072357 305.934509,418.626404 
	C302.061951,420.392914 298.427032,422.178497 296.732880,427.338715 
	C300.741577,423.691589 304.592163,420.833405 309.021667,419.197174 
	C313.258026,417.632294 317.150085,414.736908 322.441803,415.280121 
	C322.711060,409.140198 328.044861,408.224091 332.809204,405.960175 
	C330.330994,404.600586 330.579407,403.002380 331.894257,401.368652 
	C335.801910,396.513245 340.959351,394.554382 347.389008,394.316772 
	C346.987000,398.127838 344.025909,399.705353 342.488159,402.412354 
	C346.402802,403.646545 349.771698,401.437286 353.912811,401.736237 
	C352.351654,398.240540 353.891632,396.162689 356.459442,394.648743 
	C360.756805,392.115082 365.140045,391.975952 370.005829,394.143341 
	C367.367981,398.699554 363.265991,399.645111 358.946655,400.440857 
	C369.885010,401.911072 380.664856,403.264465 390.736725,408.078613 
	C410.078094,417.323364 424.217010,431.921661 434.836121,450.175110 
	C439.236847,457.739716 444.031250,464.824463 451.157318,469.447052 
	C454.216797,462.373260 459.397980,467.872040 463.646027,467.169037 
	C460.265930,458.646393 452.274811,454.580688 445.216522,449.653046 
	C447.909943,446.692963 449.540253,449.558624 451.300507,448.777283 
	C451.859955,446.335876 450.165100,444.917236 448.567871,443.991364 
	C443.888885,441.279083 443.520599,437.293396 443.971741,432.450745 
	C445.950195,411.213837 449.721405,390.253235 453.070343,369.216034 
	C457.090729,343.960846 446.283600,320.100708 422.096222,310.573364 
	C420.461823,309.929626 418.540161,309.523651 417.538269,307.524109 
	C419.335052,303.349304 424.901367,302.461487 426.444885,297.952972 
	C417.995514,294.338898 410.346802,294.870087 402.757050,302.485992 
	C409.561768,300.318665 415.385742,295.789093 423.217529,299.775665 
	C418.861633,303.704590 415.118103,307.081207 410.821075,310.802216 
	C406.886963,312.229950 403.559021,313.467255 400.075897,314.252625 
	C404.246521,314.744843 407.987457,313.964844 410.986816,310.974731 
	C423.287720,310.580048 432.148682,317.382538 439.776672,325.700012 
	C449.515045,336.318542 450.910797,349.628357 450.882812,363.489990 
	C450.838470,385.460297 443.503479,406.431213 442.676788,428.268372 
	C442.560547,431.339081 442.992889,434.615143 441.644501,437.595978 
	C436.561188,436.925964 436.222992,436.129395 438.398285,431.961182 
	C440.339844,428.240814 439.486328,424.161865 439.749207,420.232727 
	C440.236115,412.956238 438.981018,405.191895 441.912384,398.310028 
	C443.569153,394.420532 444.833557,390.572418 445.566376,386.487213 
	C445.834961,384.990082 445.763885,383.316406 444.689331,382.197296 
	C441.643463,379.025177 441.728363,376.717651 445.391663,373.756714 
	C448.862457,370.951324 448.698578,365.431244 445.564941,360.985901 
	C444.203552,359.054626 444.021942,357.767548 445.244202,355.676849 
	C448.404694,350.270782 447.086121,344.338318 441.997406,340.928680 
	C439.767853,339.434814 439.040588,337.662964 438.969849,335.115479 
	C438.723419,326.244690 434.209869,322.445953 425.720306,323.928284 
	C423.217590,324.365295 421.662659,324.022369 420.821686,321.253265 
	C419.464386,316.783966 414.937927,313.984894 410.493835,315.514801 
	C407.058014,316.697662 403.443329,317.077026 399.486237,318.382019 
	C406.811218,319.317139 411.757843,321.691956 414.940460,325.754395 
	C405.308411,327.689087 394.298950,326.409912 387.820984,337.927032 
	C392.606567,336.790253 396.385956,335.661163 400.749390,337.468079 
	C396.356934,345.861328 384.696808,341.553772 380.429260,349.892059 
	C384.638702,351.483917 389.486847,347.590118 393.228760,351.773438 
	C391.742004,353.942932 389.639526,354.756989 387.370514,355.309723 
	C385.591400,355.743103 383.781891,356.077515 382.036438,356.618896 
	C373.384705,359.302490 371.855835,362.717773 375.535187,370.908020 
	C375.725983,371.332794 375.684174,371.862030 375.765381,372.449219 
	C373.847809,374.206879 369.846771,371.954071 369.034515,375.941437 
	C368.902802,376.588043 367.518097,376.341309 366.827057,375.776794 
	C365.177399,374.429169 364.274445,372.648773 364.445923,370.528290 
	C365.180511,361.445160 369.817505,353.937622 374.086578,346.233093 
	C375.636322,347.205811 373.940186,348.519257 374.755188,349.512451 
	C380.774536,340.217926 382.387085,334.711853 380.508545,329.911377 
	C367.235535,336.648468 359.827942,349.067413 351.102966,360.204498 
	C345.735901,367.055359 338.576630,371.082489 330.250549,373.024200 
	C327.192657,373.737366 323.961090,373.667023 321.685516,370.889740 
	C322.073242,368.848419 324.387177,369.466339 325.145447,367.811798 
	C323.970978,364.451202 319.857666,362.419373 319.884796,357.032013 
	C326.191650,362.069244 331.732361,368.611694 340.531189,362.027832 
	C336.145996,359.727264 335.874847,353.822327 330.614197,352.610962 
	C330.138885,352.501526 329.839691,350.879669 329.759705,349.934692 
	C329.460571,346.400330 331.170837,343.275208 333.982422,341.954987 
	C342.834442,337.798279 346.100372,327.820862 354.330872,323.149109 
	C355.238373,322.634033 355.643311,321.668640 355.639954,320.592743 
	C355.620239,314.278503 359.704498,311.071320 364.776642,308.724609 
	C368.249817,307.117737 371.734253,305.439270 375.373352,304.305573 
	C385.529602,301.141571 394.252838,295.833099 400.680481,287.323547 
	C406.412201,279.735321 415.617279,281.736389 423.006714,278.409058 
	C417.382141,286.318176 409.616364,291.468079 401.846863,296.725128 
	C405.694611,294.345459 411.432556,296.013184 413.837891,290.630005 
	C414.469849,289.215668 416.569427,289.882690 418.041199,290.017975 
	C419.828247,290.182220 421.564026,291.088226 423.464294,290.395081 
	C423.561157,288.524078 420.822327,288.921356 420.912933,286.811768 
	C425.257843,283.731873 429.227112,288.039459 433.418671,287.391022 
	C433.941406,290.307037 431.195251,290.262238 430.144562,292.027802 
	C432.861633,294.131958 435.225525,295.329712 438.880371,293.064484 
	C443.189941,290.393524 446.561768,291.576355 451.850098,296.381653 
	C450.480621,299.468018 447.273407,298.262299 445.026001,299.226837 
	C445.073792,299.536926 445.005585,299.974365 445.185333,300.135925 
	C467.132233,319.860596 470.175354,345.833038 468.508453,372.940338 
	C467.080719,396.159119 461.783539,419.096741 463.280701,442.552643 
	C463.624023,447.931274 464.564423,453.123505 467.549347,457.751343 
	C470.949188,463.022400 475.596893,465.984314 482.053284,465.972076 
	C486.716583,465.963257 491.362183,466.477173 495.914032,467.537476 
	C497.966064,468.015472 500.099518,468.531708 501.187347,470.320099 
	C500.865387,472.878052 498.138977,472.063965 497.377808,474.191986 
	C508.417816,476.893219 519.011292,471.466339 530.621216,471.978973 
	C528.044312,475.866730 523.424316,475.166840 521.633301,478.690826 
	C523.480774,481.608398 526.263000,480.787781 528.750977,480.363190 
	C535.630371,479.189148 542.476746,477.822205 549.341187,476.558746 
	C550.589966,476.328888 551.992065,475.640564 552.620483,477.787476 
	C550.400513,479.559631 548.214905,480.666382 546.897156,483.020721 
	C551.369995,483.939240 555.744446,482.813995 561.225647,479.441040 
	C559.056030,479.823639 557.117981,480.177765 555.175354,480.504669 
	C553.082214,480.856934 552.392944,479.965424 552.986328,477.976990 
	C554.669312,477.536407 556.666199,478.293823 558.783447,475.986359 
	C550.231201,472.492004 542.353760,477.670471 533.439697,476.654449 
	C556.635376,450.098907 554.702087,426.712097 525.710876,407.179657 
	C526.213867,404.508453 528.197693,403.967072 529.661743,403.069183 
	C550.341187,390.386627 572.688477,382.627594 597.017212,381.728699 
	C668.591492,379.084167 724.411499,408.576782 764.181702,467.205719 
	C792.019165,508.243408 797.682129,554.322998 786.693848,602.255920 
	C777.843933,640.861206 758.359985,674.242493 733.302246,704.526001 
	C721.887451,718.321167 708.857483,730.451355 694.312744,740.917603 
	C692.614319,742.139709 691.120850,743.913818 688.405518,743.785461 
	C687.935547,740.016602 690.813782,738.155762 692.883728,736.073486 
	C705.580505,723.300842 717.736755,710.049927 728.729370,695.774109 
	C739.735107,681.481323 749.948547,666.663330 756.429688,649.672119 
	C759.403870,641.874939 761.534424,633.873596 760.060608,625.294006 
	C759.088318,619.633667 756.876709,614.739014 752.495117,611.060730 
	C750.029358,608.990784 749.981689,606.951782 750.793945,604.047913 
	C755.418945,587.513062 759.446594,570.849304 758.719055,553.477356 
	C758.587585,550.335693 758.228882,547.148499 757.496948,544.096985 
	C754.819702,532.935608 748.210754,528.493408 736.387817,530.465088 
	C731.975708,531.200928 731.081238,529.887878 730.524414,525.857178 
	C728.107910,508.364899 725.051086,490.988739 718.256348,474.525909 
	C716.721619,470.807312 714.845154,467.276764 712.239136,464.206512 
	C707.412964,458.520905 702.190674,458.072510 696.776062,463.137604 
	C693.899963,465.828125 691.486206,469.012817 688.369934,472.532135 
	C684.887878,468.739136 681.535278,465.138611 678.239990,461.486481 
	C671.872009,454.428894 665.356506,447.520752 657.968872,441.503418 
	C654.471802,438.654968 650.795776,436.057770 646.526367,434.458771 
	C640.500366,432.201782 636.613586,434.090057 634.619202,440.285950 
	C633.643372,443.317505 633.289246,446.454285 633.239075,449.643463 
	C633.210938,451.433167 633.672363,453.314270 632.583374,455.058014 
	C630.103149,455.817108 628.540161,453.898376 626.789612,452.872681 
	C620.141418,448.977325 613.242798,445.660370 605.770874,443.748932 
	C596.477234,441.371521 591.966675,445.935638 594.055664,455.301178 
	C595.039001,459.709412 596.553101,463.925171 598.252075,468.093140 
	C598.923828,469.740997 600.046814,471.324249 599.171204,473.994354 
	C588.474121,471.109558 577.506958,468.445862 568.225647,478.351349 
	C570.650146,480.513947 574.483337,478.888031 576.447632,481.913940 
	C575.004150,484.923340 570.917297,484.150055 569.205444,487.072174 
	C570.566284,488.878967 572.611694,488.626831 574.504639,488.651489 
	C582.336060,488.753479 590.168579,488.783264 597.999878,488.892395 
	C600.948303,488.933441 603.891113,489.131897 606.695007,490.705536 
	C605.914673,493.290527 599.895813,493.736176 605.035156,497.385529 
	C594.636902,502.776886 584.946228,502.574524 574.631409,497.065460 
	C575.275452,500.885040 577.546021,501.066254 579.201294,501.552490 
	C587.104309,503.874084 595.101318,503.169495 602.921204,501.318726 
	C614.233521,498.641327 624.655334,493.882996 633.641235,486.343140 
	C638.843567,481.977936 642.243835,476.810822 641.718567,469.523682 
	C641.439575,465.652802 640.517822,460.625092 644.672791,458.639008 
	C648.316223,456.897430 651.243835,461.000061 654.147827,462.916779 
	C696.556824,490.907471 721.306946,530.530701 730.201843,580.175598 
	C735.000549,606.958618 735.418640,633.951050 728.714417,660.480957 
	C721.544922,688.852112 704.763672,711.797607 685.504822,733.202148 
	C654.416138,767.754700 615.048950,785.731873 569.680847,792.460571 
	C542.169678,796.540894 514.639648,797.048096 486.984436,795.125671 
	C485.011566,794.988586 483.013214,794.903015 480.384125,793.303650 
	C486.667480,790.805786 492.655975,790.180481 498.559052,790.099792 
	C514.718445,789.878967 530.870728,789.761230 546.930664,787.698914 
	C561.678101,785.805115 576.174683,782.916382 589.723999,776.452209 
	C595.374695,773.756287 600.208923,770.019165 604.142212,765.123291 
	C607.114014,761.424316 608.503357,757.117371 607.921875,752.525085 
	C607.333618,747.878845 609.423584,747.025024 613.455261,746.621338 
	C626.911621,745.273987 640.185791,742.970886 652.435730,736.751343 
	C668.466980,728.611877 672.416321,716.006470 663.428589,700.355835 
	C661.448975,696.908508 662.006470,695.396362 664.982422,693.151489 
	C674.170471,686.220947 683.002747,678.830994 689.798767,669.386841 
	C694.046753,663.483643 697.522156,657.245300 696.270813,649.545288 
	C695.312439,643.648132 691.701477,639.606323 686.619263,636.912231 
	C683.310974,635.158386 682.509033,633.078125 683.174866,629.271851 
	C685.289185,617.183838 688.211487,605.098511 685.861084,592.657593 
	C683.454468,579.919006 676.755859,576.447876 665.036621,581.992065 
	C662.211609,583.328674 659.511719,584.929688 656.834351,586.366211 
	C654.323181,584.598083 655.120728,582.247314 655.048279,580.221191 
	C654.774353,572.563171 654.889465,564.852966 651.665466,557.652039 
	C647.175964,547.624634 640.008911,545.221985 630.146667,550.120605 
	C627.988281,551.192688 626.403259,553.603638 623.177734,552.768066 
	C619.320068,544.498413 613.972229,538.572327 605.655518,535.689880 
	C613.219482,539.683777 617.799377,546.659302 623.019348,552.994385 
	C623.352661,554.274658 623.534363,555.621704 624.958191,556.919800 
	C628.017944,555.024475 631.100281,552.865173 634.402710,551.123108 
	C640.771667,547.763367 645.068665,549.157104 648.108093,555.722412 
	C651.460632,562.963989 651.857056,570.846375 652.216125,578.655212 
	C652.450012,583.741394 652.260193,588.847046 652.260193,593.856262 
	C655.976868,594.612976 656.476379,590.420349 660.179260,590.950623 
	C661.263245,630.430847 651.019287,666.786072 629.930664,700.833252 
	C629.402283,701.552734 629.177063,701.793274 628.965088,702.046204 
	C618.639160,713.871643 606.709106,723.791016 594.193115,733.285889 
	C575.727112,747.294678 554.710693,755.016113 532.826233,761.072083 
	C515.611145,765.835876 498.041290,768.807861 480.171844,768.793274 
	C453.028412,768.771057 426.456879,765.278503 401.314697,753.142090 
	C401.004913,753.002991 401.033325,753.034302 401.033325,753.034302 
M474.442566,483.515259 
	C479.996216,488.049072 484.671204,485.051147 489.320740,481.793213 
	C484.309387,483.472015 479.267639,484.705017 473.626221,482.415863 
	C470.629700,477.515533 463.241577,473.866486 458.278809,475.229370 
	C463.693634,478.047638 468.161438,481.843445 474.442566,483.515259 
M286.627808,466.076294 
	C288.601898,466.141266 289.903137,464.955597 291.302216,463.857697 
	C287.526306,459.020966 285.730042,458.635071 281.123474,461.844971 
	C283.767761,463.498596 282.662781,465.103455 281.115173,466.789948 
	C279.497498,468.552887 278.826080,470.788666 278.421417,473.096588 
	C278.133362,474.739197 279.123749,475.430847 280.499786,475.976898 
	C281.997589,476.571350 283.095825,476.391296 283.726288,474.833984 
	C284.858246,472.038055 287.741516,469.225616 283.480347,466.713196 
	C284.367157,465.678040 285.176422,465.733887 286.627808,466.076294 
M351.555664,344.230164 
	C352.190643,345.627350 353.743164,346.887238 352.515961,348.328796 
	C349.786346,349.827148 348.457092,345.777893 345.773468,347.261383 
	C345.649628,350.362030 346.829193,352.629944 349.405579,354.194122 
	C353.345856,351.216522 358.785797,344.689941 359.838562,341.729401 
	C356.023773,344.479309 356.023773,344.479309 351.948395,340.546478 
	C350.431213,341.271057 350.105652,342.310669 351.555664,344.230164 
M369.191040,332.261871 
	C368.478882,330.364594 368.455505,328.643158 371.137024,329.564178 
	C373.779968,330.471893 374.545502,328.944855 375.890015,327.044220 
	C372.721283,326.015717 369.540375,325.323425 367.350891,326.895050 
	C364.595398,328.872925 365.148865,332.547485 365.630615,335.122467 
	C363.452728,338.063202 360.892853,331.222748 359.348907,335.526764 
	C360.606232,337.228577 361.653992,338.646759 362.996002,340.463196 
	C365.039429,337.282410 368.244293,336.025208 369.191040,332.261871 
M492.578552,563.061768 
	C495.603149,570.419739 504.445496,569.036743 508.795074,574.426208 
	C508.749512,570.158875 506.894196,568.506409 502.799500,568.150818 
	C498.393555,567.768311 493.693848,566.882324 494.342682,560.239990 
	C494.598724,557.618530 492.294312,558.179138 490.426147,558.556763 
	C491.165771,560.067261 491.743835,561.247803 492.578552,563.061768 
M309.558289,437.831879 
	C313.496124,435.889038 315.286926,432.500519 315.900360,428.269257 
	C312.944946,431.806000 308.811584,434.140442 305.297241,437.910614 
	C306.716278,438.337585 307.164825,438.584076 307.608337,438.575287 
	C308.073242,438.566101 308.533325,438.311981 309.558289,437.831879 
M344.712921,359.591492 
	C345.740723,358.800262 346.906586,358.104126 346.828827,356.365204 
	C345.255707,355.551514 343.876831,353.957520 341.109955,355.043427 
	C342.010254,356.884888 342.036377,358.886932 344.712921,359.591492 
M503.120026,480.434784 
	C502.208984,480.245117 501.408325,479.407135 500.242767,480.011230 
	C501.458252,481.541626 500.763245,482.823547 499.352203,484.102142 
	C504.634430,483.230774 504.634430,483.230774 503.120026,480.434784 
M479.883942,478.599060 
	C476.365692,475.476166 476.332825,475.482056 475.480255,479.431183 
	C476.927765,480.086609 478.323090,480.090637 479.883942,478.599060 
z"/>
<path fill="#000000" opacity="1.000000" stroke="none" 
	d="
M703.055176,350.949677 
	C698.441040,344.730408 692.075439,340.125854 686.106201,335.672852 
	C682.248962,332.795441 677.197998,329.290131 671.357910,329.451416 
	C667.615784,329.554779 666.169006,327.154785 665.824768,323.044373 
	C659.366882,326.495544 653.893188,322.107758 647.893616,322.053101 
	C643.614807,322.014130 639.605957,323.372192 635.329712,323.432495 
	C632.546326,323.471741 631.070801,328.480103 628.154236,330.537628 
	C627.376709,331.086151 627.536194,332.997925 627.317749,334.292633 
	C627.152893,335.269562 627.119263,336.213531 626.090698,336.839111 
	C621.829956,339.430267 621.129150,342.396973 623.771790,346.315521 
	C625.821167,349.354431 625.821228,349.354401 625.327637,353.262543 
	C627.955933,354.510651 630.774719,355.779480 630.307190,359.370972 
	C633.775452,360.368988 638.152222,355.941803 639.983459,362.028412 
	C642.625916,360.676697 643.868835,357.109467 648.180725,358.800934 
	C649.825317,359.446106 653.472839,355.298706 655.130493,353.025421 
	C659.128235,347.542999 660.572815,340.904724 659.495361,333.949677 
	C659.188171,331.967133 659.305359,329.990112 660.481995,328.263519 
	C669.137268,328.955231 672.390991,331.165588 673.852783,337.298370 
	C674.130249,337.464233 674.412659,337.767944 674.691101,337.764282 
	C682.654541,337.660431 682.892883,338.051147 680.627930,345.888794 
	C679.408020,350.110352 677.428101,353.899872 674.639404,357.492310 
	C676.377502,358.053497 678.621887,356.200806 679.532959,358.633026 
	C680.329956,360.760712 679.187927,362.530640 677.866272,364.080872 
	C674.954529,367.495972 671.048706,369.323914 666.920715,370.792786 
	C665.220886,371.397675 663.278320,371.444733 661.917847,372.869812 
	C662.669861,379.102661 662.463257,379.315613 655.772156,379.269928 
	C648.749634,379.221954 641.862732,378.001862 634.997742,376.821228 
	C631.671204,381.914276 628.753540,382.525665 623.267151,379.205414 
	C618.667908,376.422089 615.893372,372.102783 613.509155,367.446777 
	C612.576050,365.624359 612.056946,363.538544 608.955933,363.852783 
	C606.645142,364.086945 605.996826,361.509796 605.313354,359.651520 
	C603.610229,355.020844 603.689819,350.174438 603.665649,345.336517 
	C603.656860,343.573059 604.207153,341.237396 601.967957,340.563568 
	C597.542847,339.231873 599.016113,336.470947 600.089111,333.861206 
	C602.027283,329.147186 605.528198,325.501984 608.853088,321.782379 
	C611.107239,319.260620 612.527039,316.934204 608.799438,314.520508 
	C611.335876,310.522827 615.340454,310.203278 618.980225,309.413391 
	C622.697571,308.606659 626.510376,308.239746 630.601135,307.632874 
	C630.466125,304.702606 629.648071,303.640259 626.441223,303.574371 
	C620.081421,303.443726 613.411987,303.537323 608.573364,298.123474 
	C607.726074,297.175476 606.634521,297.183472 605.493530,296.908356 
	C599.559448,295.477844 595.752747,291.510376 593.552917,285.957825 
	C592.161804,282.446503 594.577759,281.485962 597.262024,281.050690 
	C603.848145,279.982788 610.188110,281.391174 616.468201,283.197479 
	C618.043274,283.650543 619.608337,284.138336 621.162292,284.605438 
	C622.203857,282.925049 619.444946,281.831604 621.016602,280.334015 
	C626.400452,280.363525 631.849426,284.245636 633.201172,289.139130 
	C633.549072,290.398682 634.940918,291.253754 640.248596,293.456085 
	C641.772583,292.659332 640.533325,290.477417 642.731262,289.378174 
	C646.932007,291.213928 650.060974,295.094452 654.145203,298.191528 
	C652.499023,300.256836 651.097717,302.014954 649.541260,303.967773 
	C652.625366,305.570770 655.818420,307.231445 659.012451,308.890228 
	C661.798950,310.337372 664.445190,309.493256 666.384155,307.590393 
	C669.117004,304.908508 671.295227,305.717590 673.759827,307.720184 
	C678.543396,311.607147 683.371887,315.438995 688.199768,319.271057 
	C689.611694,320.391754 690.816956,321.854126 692.742920,322.218750 
	C694.588562,321.598480 694.004211,319.141663 695.742554,318.366699 
	C697.856445,318.493896 698.542480,320.370056 699.612366,321.786804 
	C704.630920,328.432098 709.494080,335.201965 714.707397,341.690613 
	C718.461975,346.363678 718.672241,346.198059 723.973938,342.671295 
	C729.441956,350.863129 731.944397,360.808746 738.214844,368.289642 
	C740.967529,368.115753 740.648499,364.762604 743.796753,364.618011 
	C748.890991,372.200134 750.524597,382.002319 755.753906,389.770477 
	C757.840820,390.166138 758.085693,387.668762 760.726074,387.843811 
	C765.107605,396.767731 766.160583,407.294067 769.729553,416.856903 
	C771.470886,416.817139 771.719910,415.425598 772.503357,414.660706 
	C773.751038,413.442444 774.510620,411.125336 776.761047,411.951721 
	C778.765991,412.687958 778.829224,414.973907 778.911377,416.693481 
	C779.173279,422.180115 779.139771,427.681061 779.207092,433.176605 
	C779.229126,434.976532 779.210571,436.776947 779.210571,438.900574 
	C782.853882,438.256409 782.602112,433.795074 786.537598,433.648865 
	C789.888855,441.589722 788.165039,450.465546 790.244263,459.262024 
	C791.228943,457.764862 791.669006,455.849670 793.539429,456.174225 
	C795.233276,456.468170 795.772400,458.035217 796.357483,459.414001 
	C798.664734,464.850464 799.409485,470.681732 800.039978,476.436584 
	C802.727295,500.964142 803.349976,525.600891 803.389832,550.256958 
	C803.390869,550.906250 803.408203,551.591858 802.543518,551.963867 
	C801.046692,551.459839 801.109070,549.971252 800.844421,548.774353 
	C796.340149,528.404968 790.035278,508.597321 782.462402,489.171814 
	C780.197998,483.363251 776.856934,478.247467 773.304260,473.183136 
	C770.461487,469.130585 771.034180,467.909088 776.228821,466.323029 
	C772.086365,456.656647 760.320862,453.153046 757.016479,443.398682 
	C758.494995,441.268768 760.190491,442.483887 761.878662,441.911407 
	C758.035400,435.363953 750.194336,432.166260 747.335632,425.027954 
	C749.953979,422.696564 752.277893,425.629700 755.067383,424.017731 
	C750.316589,420.152466 745.736267,416.457916 741.194641,412.716309 
	C739.138733,411.022491 737.073486,409.322937 735.178467,407.457306 
	C734.036743,406.333344 732.493835,405.016266 733.222412,403.189514 
	C733.995850,401.250488 736.011597,401.717316 737.622192,401.764282 
	C739.260803,401.812073 740.892883,402.084778 743.319092,402.343292 
	C740.049194,398.862488 736.288513,397.210205 733.070129,394.862793 
	C729.439148,392.214447 725.673035,389.747528 722.099548,387.025940 
	C720.425964,385.751373 718.207031,384.219055 719.073303,381.780060 
	C719.990356,379.198242 722.695862,380.212616 725.870361,380.402130 
	C721.674988,377.332123 717.790405,376.546692 714.072571,375.383148 
	C711.853577,374.688690 709.582947,374.134125 707.416565,373.304993 
	C705.759033,372.670624 704.731018,371.347382 704.753357,369.449432 
	C704.775696,367.548218 706.194946,367.085480 707.660950,366.536438 
	C708.987976,366.039459 710.699768,365.994232 711.325317,363.842072 
	C709.325500,361.336670 706.127869,360.823029 703.252014,359.791412 
	C701.375671,359.118378 699.387512,358.762177 697.495667,358.126495 
	C690.971924,355.934418 690.606140,354.586792 695.168274,349.690582 
	C693.514404,346.162933 688.559265,347.686798 686.618286,344.187683 
	C688.277954,341.570221 690.197571,342.423981 692.064636,343.688782 
	C695.509583,346.022522 698.904053,348.430817 702.813538,351.212036 
	C703.980896,352.353027 704.597046,353.153778 705.335999,353.817749 
	C730.037231,376.013580 749.058289,402.555969 764.800537,431.593719 
	C768.685913,438.760651 772.370667,446.036377 776.147644,453.262115 
	C775.312744,449.281006 773.973877,445.536957 772.276367,441.963348 
	C762.010864,420.353607 749.316650,400.199341 734.482178,381.491180 
	C725.379700,370.011810 714.726990,359.900299 703.055176,350.949677 
M753.184937,397.663727 
	C761.491028,412.220367 769.763428,426.794434 776.249878,442.312164 
	C775.388367,436.466400 772.539856,431.420593 769.907715,426.314758 
	C764.733826,416.278381 760.265076,405.826111 752.781494,396.334381 
	C751.802429,394.597748 750.922546,392.795868 749.829346,391.134308 
	C734.340149,367.591644 715.751526,346.878845 693.828125,329.104279 
	C682.575928,319.981415 670.262085,313.747681 655.808533,311.557892 
	C632.411560,308.013184 615.218018,317.593506 608.987427,338.122284 
	C605.794983,348.640900 608.798645,357.266785 618.557312,364.166840 
	C617.918030,363.011688 617.676392,362.464569 617.340149,361.983551 
	C606.421814,346.361481 613.912109,320.926758 636.962280,315.284607 
	C650.824219,311.891510 663.579041,313.967377 675.926758,320.879944 
	C699.418762,334.031433 718.400146,352.197906 735.278198,372.898529 
	C741.597351,380.648834 746.643311,389.290436 753.184937,397.663727 
M671.143433,354.579651 
	C671.291016,353.985138 671.438660,353.390656 671.586304,352.796143 
	C669.234253,357.876770 665.124634,361.652924 661.969482,366.097137 
	C668.400208,365.143616 669.361389,359.915649 671.143433,354.579651 
M641.592468,301.146942 
	C640.025635,301.288361 638.237305,300.616730 637.166077,302.197083 
	C636.746033,303.859344 639.256226,304.706635 637.486633,307.137054 
	C637.117065,307.855133 635.477661,305.855743 634.377136,307.230194 
	C636.410156,307.870483 638.244446,308.253204 639.828918,306.899078 
	C640.423950,305.236664 638.635925,303.900726 639.667969,302.458984 
	C640.746521,301.531921 641.916992,302.132996 643.037109,302.099182 
	C643.490723,302.085510 643.531189,301.703308 643.107239,301.481354 
	C642.821777,301.331940 642.473450,301.302795 641.592468,301.146942 
z"/>
<path fill="#000000" opacity="1.000000" stroke="none" 
	d="
M576.764465,276.589813 
	C579.287598,282.913605 583.480286,288.441559 585.330017,295.445099 
	C586.181885,293.744843 585.476868,291.888489 587.815979,290.919464 
	C591.853333,294.323761 593.201721,299.259705 595.527100,304.534027 
	C591.021240,304.462921 588.786255,302.292145 586.505127,300.072235 
	C586.505127,303.565857 586.505127,306.856781 586.505127,310.102234 
	C591.295349,311.204834 593.318542,314.258514 592.085144,319.153442 
	C591.084595,323.124176 589.505249,326.949036 588.013550,331.335785 
	C583.072937,327.017761 586.571777,322.228729 586.258728,317.767670 
	C583.414062,324.378632 581.137878,331.208496 576.904663,337.000946 
	C580.538513,340.470703 579.227905,344.395081 574.424377,351.234314 
	C571.686890,350.660583 572.104065,347.314850 569.845947,346.095184 
	C567.853088,346.296906 566.527222,347.809753 565.056885,349.071991 
	C567.597412,354.025787 563.019592,362.025482 554.676575,366.952240 
	C552.788269,363.060852 553.016541,359.506439 555.283569,355.585876 
	C546.233398,361.663788 537.133423,367.669220 528.148254,373.841766 
	C520.464355,379.120453 513.144592,384.964691 505.241852,389.880524 
	C495.690765,395.821716 489.456390,404.510223 483.647888,413.680420 
	C482.648590,415.258118 481.285980,417.299042 483.474335,419.053406 
	C489.920898,424.221436 486.767456,430.344910 485.737701,436.235046 
	C482.169037,437.234009 480.702545,434.173737 478.312927,433.314545 
	C475.718201,439.238312 476.716553,442.724884 480.506195,447.631287 
	C483.054626,450.930756 485.580444,454.541229 486.846924,458.619934 
	C485.140930,460.569397 482.682007,460.613739 481.846008,459.211456 
	C479.976349,456.075226 476.567261,455.131500 474.320312,452.774445 
	C472.594971,450.964508 469.961853,449.101929 472.979340,445.658997 
	C474.432831,444.000580 471.686188,440.832031 470.267914,441.160980 
	C466.029816,442.143951 466.279022,438.817657 465.892029,436.961823 
	C465.255157,433.907379 465.447510,430.667053 465.422852,427.504089 
	C465.412598,426.187683 465.534912,424.951874 467.553131,424.859344 
	C470.274719,424.734589 471.487335,422.868530 471.673065,420.262634 
	C465.243683,418.282990 463.948090,413.817810 467.480865,406.040741 
	C469.395569,405.299225 469.827301,407.553894 471.202026,407.902405 
	C473.454559,408.069733 475.553864,403.984680 474.757202,400.933838 
	C473.640686,400.745636 473.759216,402.703674 471.988770,402.053375 
	C468.358673,396.468933 468.372131,390.188599 469.875763,382.516388 
	C474.454468,386.241028 473.491699,390.641449 474.308197,394.246429 
	C480.118927,385.012054 489.385345,379.081757 497.761566,372.184937 
	C491.750336,374.825958 487.277100,379.975159 480.838684,382.006897 
	C482.565033,377.896088 483.094238,373.155212 488.912476,372.200745 
	C492.131744,371.672668 494.570557,369.289520 495.587677,366.025482 
	C496.503906,363.085205 498.147766,361.709503 501.356567,361.696899 
	C505.102966,361.682190 508.095520,359.721008 509.978088,356.533661 
	C511.389557,354.143860 513.114075,352.937897 515.934814,352.813904 
	C521.488159,352.569824 525.708435,349.813690 528.743347,345.224792 
	C529.873962,343.515259 530.952393,341.874237 533.369507,342.014862 
	C538.283569,342.300873 541.543518,339.670776 543.974609,335.768250 
	C545.437805,333.419556 546.987915,331.603943 550.156250,331.482361 
	C552.546997,331.390656 554.408569,329.788177 555.743835,327.696106 
	C558.906128,322.741577 558.494812,316.537659 561.547119,311.472260 
	C562.556030,309.798035 561.179871,307.511414 559.762024,306.044861 
	C556.500122,302.670807 556.471863,299.053131 558.828796,294.324219 
	C564.401123,300.681946 564.403564,308.042450 564.843445,315.336975 
	C567.084717,310.676392 567.635864,305.697754 565.155579,301.307312 
	C562.150146,295.987305 559.286743,290.456512 554.928528,285.994843 
	C552.922241,283.940918 550.793274,282.235992 547.673828,282.054474 
	C544.547852,281.872559 542.566956,280.455872 544.022095,276.746094 
	C537.810059,278.530090 537.324951,279.638977 540.420898,284.934753 
	C541.250244,286.353485 542.486450,287.531891 543.512146,288.839203 
	C544.389160,289.956909 546.106567,290.505341 545.890808,293.053436 
	C539.705688,294.073334 535.364319,290.636353 531.165649,286.939392 
	C527.306580,283.541382 525.510193,283.244202 520.744385,285.760895 
	C523.769226,288.334503 529.125366,288.264954 529.617004,293.955627 
	C523.012085,294.786438 516.898560,288.781219 509.649872,292.949951 
	C514.914185,295.373016 518.489868,299.646027 524.051453,301.188690 
	C520.349731,304.015778 516.387207,303.497620 512.453857,302.592926 
	C509.170074,301.837708 506.204193,300.240387 503.526764,298.233765 
	C501.146027,296.449524 498.909943,295.912048 496.195312,297.571655 
	C493.524902,299.204254 493.382751,301.371735 494.152283,304.008820 
	C494.322632,304.592590 494.068665,305.300171 494.002075,306.039673 
	C490.264801,307.987732 488.331146,304.168671 485.730713,303.443542 
	C483.152069,304.266754 485.642853,306.749084 483.968567,307.721252 
	C479.233643,306.206970 478.430603,304.325928 480.615570,299.870300 
	C475.929749,297.005157 475.002289,294.477844 476.984436,289.941711 
	C477.292908,289.957672 477.823395,289.868378 477.890350,290.005432 
	C480.229736,294.796509 483.570312,295.014557 488.050354,292.817627 
	C494.120941,289.840820 500.825867,288.145599 505.293671,282.349274 
	C506.458466,280.838104 509.135712,280.556549 511.005005,279.508148 
	C513.243347,278.252747 515.325745,276.671448 514.742798,273.653046 
	C514.239746,271.048248 512.047058,270.553894 509.828888,270.186066 
	C509.215912,270.084442 508.643036,269.741150 507.922119,269.457764 
	C510.991028,267.132202 515.293640,267.656616 517.857178,270.623962 
	C520.323181,273.478424 519.577820,276.258850 517.048706,278.536987 
	C511.113403,283.883362 504.069794,287.652191 497.442932,292.067261 
	C504.401947,289.435791 511.389771,286.879669 517.505432,282.533142 
	C522.413757,279.044739 521.679199,270.760803 516.338989,267.951752 
	C512.914734,266.150513 509.271362,266.121460 505.613617,266.606567 
	C498.370148,267.567291 491.492188,270.609619 484.035889,270.415833 
	C481.063721,270.338562 481.598114,273.635864 480.063293,274.891937 
	C477.350006,274.405090 478.352448,271.914520 477.337036,270.383118 
	C474.256866,270.502014 474.351318,274.005646 472.537292,275.256897 
	C472.181824,275.138000 471.941498,275.131531 471.890167,275.029755 
	C469.570526,270.431000 471.729065,265.956848 473.286224,262.034821 
	C474.898499,257.973785 479.865387,256.520020 483.611877,258.146393 
	C493.702118,262.526672 502.875153,256.218506 512.530823,256.588806 
	C513.094543,256.610413 513.860840,256.156982 514.231079,255.686905 
	C518.873169,249.792542 524.739929,251.116196 530.653320,252.872009 
	C532.565430,253.439774 534.499756,254.058563 536.269836,254.957397 
	C544.685852,259.230835 553.115540,258.963440 561.877319,255.887680 
	C569.769897,253.117065 584.039124,256.643433 588.405029,262.168213 
	C585.102539,263.608856 582.088318,264.680756 578.688110,262.449097 
	C576.848328,261.241577 574.932739,260.833893 572.724915,262.499176 
	C570.632690,264.077332 567.960388,263.416077 565.487427,262.833801 
	C562.266113,262.075287 559.186584,262.018219 556.540100,265.677521 
	C563.409790,265.144836 567.744019,269.327850 572.998657,273.085999 
	C574.631836,274.445770 575.698181,275.517792 576.764465,276.589813 
M518.363525,359.086609 
	C519.434753,358.405762 520.785950,358.023132 521.290161,355.831573 
	C515.054932,360.125000 508.574219,363.050812 503.647461,368.346405 
	C508.360870,365.373291 513.074280,362.400146 518.363525,359.086609 
M570.495667,284.810242 
	C574.056030,280.848145 569.377319,281.980225 568.261902,280.810455 
	C569.235352,284.612335 566.091064,284.647491 563.633545,285.630096 
	C566.138672,286.148804 568.085083,286.170746 570.495667,284.810242 
M565.620239,275.881561 
	C566.205627,271.625336 562.467896,271.098938 560.309082,269.200378 
	C562.009705,271.549347 562.795105,274.571716 565.620239,275.881561 
z"/>
<path fill="#000000" opacity="1.000000" stroke="none" 
	d="
M271.013092,579.043213 
	C269.473999,568.007751 266.892731,557.118103 266.395813,545.936157 
	C266.307281,543.944275 266.022522,541.956848 266.012207,539.966431 
	C265.978973,533.552002 270.423096,530.694763 276.559204,533.092224 
	C278.644958,533.907104 279.159943,535.711304 279.049377,537.550232 
	C278.665009,543.942200 280.679718,550.034729 281.245880,556.147217 
	C281.690704,560.949768 284.362122,565.631653 282.955078,570.601562 
	C282.603058,571.844971 282.839935,572.839111 283.607819,573.855042 
	C284.200043,574.638428 285.229889,575.942810 284.974152,576.385986 
	C281.820190,581.852356 288.526672,586.066589 286.747864,591.289734 
	C286.283508,592.653259 287.025757,593.527588 288.215637,594.053040 
	C290.713806,595.156372 291.563293,597.156006 291.317566,599.727844 
	C291.158844,601.389099 292.215027,602.302795 293.069153,603.560791 
	C296.241547,608.233276 300.188751,612.159729 304.662903,616.226868 
	C307.982819,615.649719 311.183472,617.361328 314.685272,618.404663 
	C319.010590,619.693359 323.375977,621.873962 328.729736,621.865845 
	C334.705597,621.856750 338.680695,615.553589 344.659119,618.392456 
	C346.639099,614.191101 351.526733,613.129211 354.084076,609.025879 
	C356.848053,604.590942 354.653778,599.400208 358.086487,595.099915 
	C359.472412,593.363647 358.246643,587.892090 356.391937,585.575378 
	C352.910461,581.226685 351.321625,575.962402 348.120575,571.535828 
	C345.842316,568.385315 342.215759,566.356384 339.465271,565.789246 
	C333.162109,564.489502 326.455627,563.552917 319.888092,565.436707 
	C318.826996,565.741028 317.461914,565.706970 316.441528,565.307617 
	C311.909363,563.533997 308.660767,567.248901 308.264313,569.658997 
	C307.185974,576.213684 302.664215,578.129883 297.473633,579.938660 
	C297.919708,583.252808 298.193420,586.082031 296.332733,589.163452 
	C295.380402,590.740662 297.162445,594.049622 297.875031,596.528076 
	C298.539581,598.839355 298.107544,600.611694 295.637604,601.173157 
	C292.912506,601.792603 292.804169,599.746460 292.598907,597.819641 
	C292.495697,596.850586 292.284363,595.761169 291.744568,594.990601 
	C285.184113,585.624817 287.395416,576.821045 293.305389,568.199951 
	C293.866211,567.381836 294.264862,566.452576 294.737854,565.576721 
	C290.144348,562.876404 289.535065,557.418152 293.921783,553.510803 
	C297.856567,550.005920 302.312958,547.097656 304.686249,541.568359 
	C308.804443,545.348511 306.761597,549.230774 306.508423,553.721130 
	C310.447662,551.694763 314.681519,552.035950 316.101074,546.789246 
	C316.849579,544.022644 319.868195,542.164368 322.661743,540.948486 
	C326.992401,539.063599 331.664062,539.736328 336.264923,538.819824 
	C336.638031,543.453186 332.066284,544.314209 330.580811,548.727722 
	C341.615387,548.379761 352.942108,543.811951 361.847198,553.365845 
	C360.511414,555.327148 357.248383,554.164429 355.473785,556.468140 
	C356.430786,559.145874 358.474091,560.013794 361.221039,559.603271 
	C363.335083,559.287292 365.371704,559.549194 366.747162,561.179199 
	C370.125336,565.182617 373.316559,569.343811 376.454742,573.280640 
	C374.662415,576.328613 372.122467,573.885559 369.567596,575.220459 
	C371.092621,579.394104 369.346527,584.397156 374.772766,587.754395 
	C378.194336,589.871338 379.146729,594.519531 378.792175,598.578369 
	C378.499603,601.927185 378.628937,605.519531 376.866119,608.733093 
	C372.925964,607.595398 373.738403,603.299316 371.420959,601.272461 
	C367.795563,604.302307 366.782990,608.579102 369.074158,612.207031 
	C370.795166,614.932129 370.251953,617.574158 369.489044,620.353699 
	C367.872681,626.242371 363.576141,630.621338 360.898163,636.486389 
	C356.910553,632.664551 359.886932,627.885864 358.158508,623.468323 
	C343.497345,633.442261 327.708923,636.804688 309.910583,632.808777 
	C308.724976,632.334229 308.219391,632.057495 307.713837,631.780762 
	C295.355316,626.353027 287.072784,616.723022 280.117126,605.007019 
	C279.544739,604.138489 279.328217,603.621216 279.111694,603.103882 
	C276.200989,595.380737 273.481842,587.594543 271.190552,579.309692 
	C271.001831,579.013855 271.013092,579.043213 271.013092,579.043213 
z"/>
<path fill="#000000" opacity="1.000000" stroke="none" 
	d="
M493.587830,272.827332 
	C495.929749,270.926514 495.929749,270.926514 497.111938,274.032928 
	C500.658508,274.708740 501.168945,272.326294 501.156311,268.216583 
	C503.563049,272.469116 506.452484,273.133148 509.738403,273.129791 
	C511.180664,273.128326 513.123840,273.575012 512.893494,275.526245 
	C512.649963,277.589111 510.709747,277.346405 509.297028,276.913116 
	C503.023224,274.989136 497.341400,277.345276 491.951874,279.770569 
	C482.999146,283.799316 473.757660,284.850098 464.151672,284.139587 
	C463.985626,284.127289 463.818817,284.122986 463.653137,284.107056 
	C458.504059,283.611938 454.162354,281.523438 452.104248,276.625671 
	C450.045044,271.725433 456.148468,270.539276 456.608673,266.548950 
	C459.379639,267.897095 459.176208,270.181396 459.874329,271.919037 
	C462.191498,277.686279 465.032715,279.736572 471.123444,280.009125 
	C478.071289,280.320068 484.700195,279.088257 491.071442,276.311737 
	C492.532074,275.675201 493.852539,275.086792 493.587830,272.827332 
z"/>
<path fill="#000000" opacity="1.000000" stroke="none" 
	d="
M515.237915,767.387207 
	C517.878113,767.072388 519.984863,765.539429 522.347168,766.576599 
	C521.471497,774.953369 516.520874,776.725159 491.903687,777.463074 
	C492.346375,773.447388 495.767609,772.385437 498.422485,770.872131 
	C503.473450,767.993042 509.291534,768.319519 515.237915,767.387207 
z"/>
<path fill="#000000" opacity="1.000000" stroke="none" 
	d="
M646.900024,675.972961 
	C648.896057,671.778015 649.574341,667.395813 652.237549,663.813721 
	C657.859131,670.164673 655.381958,683.214172 645.950195,696.937378 
	C640.746948,689.634949 643.958008,682.987488 646.900024,675.972961 
z"/>
<path fill="#000000" opacity="1.000000" stroke="none" 
	d="
M407.027527,765.523132 
	C407.347229,762.521545 409.738617,763.087341 411.493042,762.859314 
	C416.217560,762.245483 420.736572,763.513611 425.229401,764.790955 
	C430.486206,766.285583 435.745972,767.769836 441.281738,769.337036 
	C440.589417,771.697021 438.430176,771.786743 436.704620,772.314148 
	C430.837738,774.107300 425.163666,773.503723 419.830811,770.477661 
	C415.882538,768.237183 411.707397,766.688965 407.027527,765.523132 
z"/>
<path fill="#000000" opacity="1.000000" stroke="none" 
	d="
M667.239624,607.969788 
	C672.517029,614.785034 672.056824,621.908813 670.244263,629.558533 
	C660.989136,623.528992 658.328125,613.544800 663.266724,604.842834 
	C665.261108,604.793030 665.993469,606.442139 667.239624,607.969788 
z"/>
<path fill="#000000" opacity="1.000000" stroke="none" 
	d="
M661.538574,664.204956 
	C655.454834,655.243652 656.129333,646.172363 659.707703,636.651367 
	C665.327881,640.618347 666.342896,656.847534 661.538574,664.204956 
z"/>
<path fill="#000000" opacity="1.000000" stroke="none" 
	d="
M661.742615,590.009705 
	C663.241699,585.014587 665.796326,584.075195 668.559387,587.095947 
	C671.809937,590.649719 673.823059,604.311035 671.443359,610.276733 
	C668.899109,602.778442 663.415100,597.615356 661.742615,590.009705 
z"/>
<path fill="#000000" opacity="1.000000" stroke="none" 
	d="
M458.905334,712.734741 
	C462.564148,711.952515 465.807678,711.173828 469.048401,712.458435 
	C469.339355,720.504761 462.225891,726.451904 452.451874,725.011169 
	C458.246826,722.122437 455.441986,716.413635 458.905334,712.734741 
z"/>
<path fill="#000000" opacity="1.000000" stroke="none" 
	d="
M338.406006,641.284790 
	C335.800018,641.685669 334.405640,643.575439 332.509735,644.568481 
	C330.555145,640.212158 332.123566,636.872437 337.183105,634.432007 
	C341.955139,632.130249 347.653961,632.494507 351.929901,628.437866 
	C353.303558,634.628235 348.887939,638.579102 338.406006,641.284790 
z"/>
<path fill="#000000" opacity="1.000000" stroke="none" 
	d="
M549.525269,759.547974 
	C552.052979,758.321533 554.238281,757.240784 556.525635,756.109436 
	C557.519226,763.036377 548.217041,768.649231 532.101807,771.096619 
	C532.309265,767.362549 534.634277,765.526184 537.612366,764.287170 
	C541.443054,762.693298 545.323669,761.219238 549.525269,759.547974 
z"/>
<path fill="#000000" opacity="1.000000" stroke="none" 
	d="
M400.991516,752.986816 
	C400.693451,755.446716 398.636749,755.484192 396.903717,755.834656 
	C387.526703,757.730652 381.174866,752.910522 374.846497,745.496887 
	C381.704956,745.386597 387.221527,747.072571 392.560455,749.566345 
	C395.107300,750.756042 397.411438,752.492676 400.659271,752.982178 
	C401.033325,753.034302 401.004913,753.002991 400.991516,752.986816 
z"/>
<path fill="#000000" opacity="1.000000" stroke="none" 
	d="
M460.189240,771.728149 
	C466.477051,772.021729 472.502075,770.543335 478.192505,773.582336 
	C473.197906,777.524109 455.250977,778.665100 450.134460,775.279419 
	C452.461975,771.568115 456.298401,772.164734 460.189240,771.728149 
z"/>
<path fill="#000000" opacity="1.000000" stroke="none" 
	d="
M608.782288,730.805542 
	C605.189148,733.684814 601.875610,736.341431 598.299500,739.208557 
	C597.790527,734.143188 610.867798,720.009216 618.037903,717.490173 
	C618.957336,724.740295 612.992432,726.991699 608.782288,730.805542 
z"/>
<path fill="#000000" opacity="1.000000" stroke="none" 
	d="
M628.859192,702.391846 
	C629.177063,701.793274 629.402283,701.552734 629.824036,701.159058 
	C631.975830,699.842651 632.717773,697.163513 635.521912,696.613892 
	C637.521667,699.012573 638.263916,702.165771 636.451294,704.323608 
	C633.044800,708.378906 630.327209,712.853821 627.171814,718.289001 
	C624.504883,711.990112 625.281738,707.225403 628.859192,702.391846 
z"/>
<path fill="#000000" opacity="1.000000" stroke="none" 
	d="
M306.556946,665.533569 
	C307.100739,666.078796 307.427277,666.411499 307.988770,667.004822 
	C307.445587,672.531616 304.341492,669.314026 303.122040,668.167175 
	C298.566284,663.882629 294.413330,659.169739 289.726929,654.213135 
	C293.823547,652.267639 296.916656,652.328186 299.396240,655.608337 
	C301.795349,658.781921 304.031799,662.078552 306.556946,665.533569 
z"/>
<path fill="#000000" opacity="1.000000" stroke="none" 
	d="
M580.169922,751.225586 
	C576.477966,753.045898 573.643127,755.758545 569.784241,756.680237 
	C570.029297,751.621826 574.919250,747.659973 590.521790,739.664673 
	C591.256653,743.992065 589.537781,745.943420 580.169922,751.225586 
z"/>
<path fill="#000000" opacity="1.000000" stroke="none" 
	d="
M363.508057,734.731812 
	C357.958557,732.547058 354.651642,727.892944 349.449158,725.348145 
	C355.611511,722.531738 364.449615,726.811951 370.500427,735.148010 
	C368.172699,736.679932 366.018799,735.338562 363.508057,734.731812 
z"/>
<path fill="#000000" opacity="1.000000" stroke="none" 
	d="
M321.012695,687.087524 
	C322.838531,688.816772 324.341248,690.348267 326.101135,692.136414 
	C325.022308,695.367798 322.911713,694.280701 320.959473,693.322815 
	C317.730377,691.738403 315.439636,689.058594 313.524048,686.140808 
	C311.768677,683.467102 309.084106,681.786499 306.504028,679.313171 
	C310.592072,677.094360 313.435455,678.468140 315.922089,681.208984 
	C317.581604,683.038147 318.524139,685.476562 321.012695,687.087524 
z"/>
<path fill="#000000" opacity="1.000000" stroke="none" 
	d="
M340.120361,715.295898 
	C334.137390,712.856262 331.828918,706.954102 327.093781,703.592102 
	C336.504547,702.754211 341.134216,710.195923 348.019043,714.889771 
	C345.119049,716.867371 342.813385,716.295166 340.120361,715.295898 
z"/>
<path fill="#000000" opacity="1.000000" stroke="none" 
	d="
M395.887207,408.529602 
	C396.451813,404.924347 399.349854,405.016327 401.584808,405.067596 
	C406.483307,405.180023 410.766449,407.095367 414.475006,411.119751 
	C407.413025,415.248535 401.686920,412.390411 395.887207,408.529602 
z"/>
<path fill="#000000" opacity="1.000000" stroke="none" 
	d="
M497.962341,628.989807 
	C498.979309,629.751709 500.229645,630.267639 499.418671,632.091858 
	C497.126709,637.247437 488.335236,640.868591 481.596802,638.164551 
	C488.426666,636.517029 489.001648,627.232910 497.594299,629.022339 
	C498.023163,629.029846 497.983917,629.001099 497.962341,628.989807 
z"/>
<path fill="#000000" opacity="1.000000" stroke="none" 
	d="
M394.839966,578.498596 
	C397.497772,579.428650 401.438995,578.977539 401.075806,582.475708 
	C400.662384,586.457825 397.234161,588.502441 393.336182,589.114136 
	C391.235687,589.443726 389.088776,589.313782 386.989197,587.182495 
	C391.088043,585.374268 390.398254,580.069580 394.839966,578.498596 
z"/>
<path fill="#000000" opacity="1.000000" stroke="none" 
	d="
M541.924561,366.968994 
	C544.105591,365.698700 545.321533,363.161560 548.877747,364.150879 
	C546.663086,370.850494 542.261902,375.447601 536.787964,380.006287 
	C533.754761,373.315155 537.735229,370.263916 541.924561,366.968994 
z"/>
<path fill="#000000" opacity="1.000000" stroke="none" 
	d="
M379.652100,396.275818 
	C383.831055,396.204865 387.602234,396.325195 391.070251,398.206360 
	C388.244446,404.122406 378.716095,405.845825 375.451294,400.787292 
	C373.255768,397.385498 377.071564,397.102631 379.652100,396.275818 
z"/>
<path fill="#000000" opacity="1.000000" stroke="none" 
	d="
M430.481689,634.578552 
	C429.613525,635.468323 428.920929,636.083557 428.023590,636.985718 
	C424.339264,633.478882 420.139893,630.956848 414.030457,630.807312 
	C419.414520,626.671753 425.489807,626.134033 429.589752,628.672180 
	C432.051270,630.196167 432.713684,631.968933 430.481689,634.578552 
z"/>
<path fill="#000000" opacity="1.000000" stroke="none" 
	d="
M475.830322,342.375305 
	C479.333588,346.707001 477.896545,351.466370 478.503632,356.068054 
	C472.056427,354.365112 469.658997,348.717804 471.183197,339.531586 
	C473.412659,339.058044 474.290497,340.932831 475.830322,342.375305 
z"/>
<path fill="#000000" opacity="1.000000" stroke="none" 
	d="
M404.121307,675.955322 
	C401.242798,676.852539 400.137848,679.295471 398.310852,680.912781 
	C395.084290,675.754456 397.741364,668.888245 403.827484,666.350586 
	C407.917755,671.697205 408.030029,673.383850 404.121307,675.955322 
z"/>
<path fill="#000000" opacity="1.000000" stroke="none" 
	d="
M490.230164,407.399536 
	C491.778778,405.938171 492.667908,404.199188 495.588470,403.693848 
	C496.111725,409.219666 494.458221,414.137299 493.038147,419.181793 
	C486.438721,416.755615 485.635925,413.298553 490.230164,407.399536 
z"/>
<path fill="#000000" opacity="1.000000" stroke="none" 
	d="
M425.820251,428.266357 
	C419.655975,427.966339 417.828369,422.807678 413.885773,419.639191 
	C419.826141,417.713562 426.368683,420.520782 430.306244,426.237030 
	C429.532806,428.067322 427.773651,427.964996 425.820251,428.266357 
z"/>
<path fill="#000000" opacity="1.000000" stroke="none" 
	d="
M476.186432,367.204468 
	C476.542450,371.275879 478.296509,375.044403 475.623810,378.586609 
	C470.342133,375.012878 469.106781,367.984680 472.536987,361.479706 
	C475.546356,362.030090 475.369537,364.734772 476.186432,367.204468 
z"/>
<path fill="#000000" opacity="1.000000" stroke="none" 
	d="
M528.473938,383.351135 
	C526.402649,386.414978 524.444519,389.039764 520.547058,388.768188 
	C519.800354,381.253326 523.108826,377.196686 530.468628,376.721375 
	C531.302673,379.228882 529.630188,381.048706 528.473938,383.351135 
z"/>
<path fill="#000000" opacity="1.000000" stroke="none" 
	d="
M266.142883,551.126221 
	C266.079926,554.077026 267.032104,556.854248 264.496674,558.836914 
	C260.854553,555.600159 259.611542,545.917847 262.221924,540.118835 
	C266.166077,542.829895 265.292542,547.104553 266.142883,551.126221 
z"/>
<path fill="#000000" opacity="1.000000" stroke="none" 
	d="
M436.938232,437.925903 
	C440.068634,439.385071 443.236847,440.250061 444.047485,443.827393 
	C438.770935,447.872650 433.662323,445.209167 430.162720,436.675964 
	C432.611572,435.379974 434.524811,437.132843 436.938232,437.925903 
z"/>
<path fill="#000000" opacity="1.000000" stroke="none" 
	d="
M463.374023,318.839508 
	C464.890381,315.629089 466.828918,317.242920 468.128693,318.441498 
	C471.900269,321.919342 474.044220,326.164398 473.045471,332.421997 
	C468.129944,328.667419 465.170746,324.397583 463.374023,318.839508 
z"/>
<path fill="#000000" opacity="1.000000" stroke="none" 
	d="
M270.992004,579.002563 
	C270.885956,581.473633 272.206726,584.144165 270.248962,586.492249 
	C266.069855,583.999329 263.923065,576.687561 265.252808,569.107300 
	C269.484802,571.071899 268.690338,575.618713 270.812805,578.748413 
	C271.013092,579.043213 271.001831,579.013855 270.992004,579.002563 
z"/>
<path fill="#000000" opacity="1.000000" stroke="none" 
	d="
M446.190582,455.596344 
	C451.106354,456.259521 454.074463,459.047424 456.525482,462.761383 
	C451.824097,465.238586 444.806458,462.192810 443.801422,457.520752 
	C443.422760,455.760468 444.667053,455.692810 446.190582,455.596344 
z"/>
<path fill="#000000" opacity="1.000000" stroke="none" 
	d="
M286.940460,631.296387 
	C288.365082,634.972961 289.558044,638.339294 291.885681,641.357361 
	C287.526733,641.583984 287.526733,641.583984 279.502533,626.821777 
	C283.153992,625.817749 283.261047,625.879211 286.940460,631.296387 
z"/>
<path fill="#000000" opacity="1.000000" stroke="none" 
	d="
M307.311035,631.766724 
	C308.219391,632.057495 308.724976,632.334229 309.476837,632.741333 
	C311.954681,635.283325 315.367432,634.247375 318.201141,635.470581 
	C313.695587,639.063171 315.639709,639.939575 299.407684,634.129089 
	C301.399292,631.213806 304.270599,631.809326 307.311035,631.766724 
z"/>
<path fill="#000000" opacity="1.000000" stroke="none" 
	d="
M278.832153,602.894775 
	C279.328217,603.621216 279.544739,604.138489 279.848755,604.799866 
	C279.373596,607.707275 277.666779,607.038391 276.395386,605.821899 
	C272.685486,602.272217 270.298431,597.953430 268.828796,591.672241 
	C274.892822,594.074463 275.335083,599.617188 278.832153,602.894775 
z"/>
<path fill="#000000" opacity="1.000000" stroke="none" 
	d="
M505.051758,393.022766 
	C506.691833,391.670471 507.919556,390.268463 510.559143,390.162537 
	C509.896027,395.165436 507.812653,398.939667 504.612549,402.307434 
	C500.187683,398.418762 500.252808,397.368683 505.051758,393.022766 
z"/>
<path fill="#000000" opacity="1.000000" stroke="none" 
	d="
M282.022644,613.229858 
	C286.157928,616.136963 289.211334,619.692444 291.978058,623.636719 
	C286.801483,623.411133 283.027679,620.904907 280.271210,616.801025 
	C279.154846,615.138916 279.247192,613.619202 282.022644,613.229858 
z"/>
<path fill="#000000" opacity="1.000000" stroke="none" 
	d="
M577.093811,276.790710 
	C575.698181,275.517792 574.631836,274.445770 573.317200,273.211243 
	C575.027466,269.681488 577.481995,271.087311 579.734192,272.513214 
	C582.423401,274.215820 583.701050,277.136292 585.884277,279.780334 
	C581.811279,281.435242 579.798462,278.684326 577.093811,276.790710 
z"/>
<path fill="#000000" opacity="1.000000" stroke="none" 
	d="
M459.897949,304.986267 
	C461.375183,306.745148 463.651276,307.215118 464.319580,309.318085 
	C459.992676,311.211060 456.228943,308.856995 454.046844,302.798218 
	C456.554047,301.710938 458.006531,303.512421 459.897949,304.986267 
z"/>
<path fill="#000000" opacity="1.000000" stroke="none" 
	d="
M442.062775,452.690125 
	C439.317078,452.103485 438.215698,450.536896 438.039062,447.858337 
	C440.655670,446.187683 442.482574,447.206757 443.893982,449.579102 
	C444.894440,451.260681 445.143616,452.730957 442.062775,452.690125 
z"/>
<path fill="#000000" opacity="1.000000" stroke="none" 
	d="
M476.816986,460.438934 
	C473.054230,460.740112 471.555359,458.480804 471.389130,452.468536 
	C474.410004,454.361115 476.527740,456.599213 476.816986,460.438934 
z"/>
<path fill="#000000" opacity="1.000000" stroke="none" 
	d="
M358.836975,358.020874 
	C360.925507,356.511597 362.776886,357.167908 364.636536,357.720459 
	C365.243530,359.801910 364.716766,361.539001 362.803528,361.707184 
	C360.767029,361.886139 358.984619,360.758118 358.836975,358.020874 
z"/>
<path fill="#000000" opacity="1.000000" stroke="none" 
	d="
M291.559418,477.566467 
	C293.159973,477.235687 294.244446,477.401581 294.605927,478.847015 
	C294.820007,479.703125 294.587250,480.573608 293.681885,480.871124 
	C291.790527,481.492645 290.156555,480.952850 288.823456,479.548492 
	C288.806030,477.800323 290.151520,477.892517 291.559418,477.566467 
z"/>
</svg>